<svg width="320" height="99.76293661772281" viewBox="0 0 320 99.76293661772281" class="css-1j8o68f"><defs id="SvgjsDefs4107"></defs><g id="SvgjsG4108" featurekey="symbolFeature-0" transform="matrix(1.0759131454928899,0,0,1.0759131454928899,-4.010656544902989,-3.9737564761480417)" fill="#0ea5e9"><title xmlns="http://www.w3.org/2000/svg">icons</title><path xmlns="http://www.w3.org/2000/svg" d="M93.67,50c-0.4,9-8.84,14.39-15.12,19.54-6.08,5-10.27,11.3-15.62,17-7.09,7.51-15.66,9.2-23.62,1.85-5.69-5.25-9.59-12.08-15.48-17.16S9.3,61.23,7.17,53.25C4.73,44.13,13,37.56,19.28,32.53S30.14,22,35.27,16C41.18,9,49.1,3.23,58,9.13,65.36,14,69.51,22.59,76.1,28.4,82.85,34.34,93.22,39.95,93.67,50c0.09,1.92,3.09,1.93,3,0-0.43-9.53-8.15-15.31-15-20.84C74.09,23,69.22,14.46,61.78,8.27,55.37,2.93,47.38,2,40.4,6.88,32.57,12.37,28,21.39,20.73,27.51,14.33,32.87,5.7,38.28,4,47.13c-1.74,9.11,5.18,15.93,11.6,21.2,3.6,3,7.34,5.74,10.47,9.22s6,7.57,9.28,11.07C41,94.63,48.71,98.71,56.86,95c9.45-4.35,14.2-15.05,21.84-21.65C86.18,66.85,96.18,61,96.67,50,96.76,48.07,93.76,48.07,93.67,50Z"></path></g><g id="SvgjsG4109" featurekey="nameFeature-0" transform="matrix(2.018733567814174,0,0,2.018733567814174,115.80103240774932,0.5827090954133922)" fill="#1e293b"><path d="M5.16 36.52 l-0.08 0 c-0.08 0 -0.16 -0.04 -0.2 -0.08 c-0.08 -0.08 -0.12 -0.12 -0.2 -0.12 l-0.28 0.16 l-0.12 -0.04 c-0.08 -0.04 -0.16 -0.12 -0.16 -0.2 c0 -0.16 -0.12 -0.24 -0.32 -0.24 c-0.16 0 -0.52 -0.2 -0.56 -0.28 c0 -0.04 -0.12 -0.2 -0.28 -0.4 s-0.28 -0.36 -0.28 -0.4 s-0.04 -0.08 -0.08 -0.12 c-0.08 -0.08 -0.12 -0.12 -0.12 -0.16 l0.12 -0.28 l-0.12 -0.16 l0.04 -0.04 c0.04 0 0.04 -0.04 0.04 -0.12 c-0.04 -0.08 -0.04 -0.2 -0.04 -0.28 c-0.04 -0.12 -0.04 -0.2 -0.08 -0.24 l-0.08 -0.44 c0 -0.24 -0.04 -0.56 -0.08 -0.72 l-0.04 -0.32 l0 -0.2 c0 -0.04 0 -0.16 0.04 -0.24 l0.08 -0.12 l-0.12 0.04 c-0.04 0 -0.08 0 -0.08 -0.04 l0.12 -0.12 l-0.04 -0.04 c0 -0.04 -0.04 -0.44 -0.04 -0.92 s-0.04 -0.88 -0.04 -0.92 l0.04 -0.32 l-0.08 -0.2 l0.04 -0.16 c0.04 -0.12 0.04 -0.24 0.04 -0.28 c-0.04 -0.04 -0.12 -3 -0.12 -4.16 c0 -0.76 0.04 -0.92 0.32 -0.92 l0.16 0 c0.24 0 0.68 0.24 0.68 0.36 c0 0 0.04 0.04 0.12 0.04 l0.16 0.08 c0.08 0.16 0.44 0.36 0.52 0.36 l0.04 0 c0.04 0 0.08 0.04 0.12 0.12 s0.12 0.16 0.16 0.16 c0.08 0 0.12 0.12 0.16 0.24 c0 0.08 0.08 0.24 0.16 0.28 c0.12 0.12 0.24 0.76 0.24 1.92 c0 0.6 0.04 0.84 0.08 0.84 l0.12 0.04 l-0.04 0.08 l-0.16 0.24 c0 0.16 0 0.2 0.08 0.24 l0.04 0 c0.12 0 0.36 -0.2 0.36 -0.36 l0 -0.08 c0 -0.04 0 -0.08 0.04 -0.08 c0.04 -0.04 0.04 -0.12 0.04 -0.16 c0 -0.08 0.04 -0.12 0.12 -0.12 c0.04 0 0.08 -0.04 0.08 -0.08 c-0.04 -0.04 -0.08 -0.08 -0.12 -0.08 c-0.08 0 -0.08 -0.04 -0.08 -0.08 l0.04 -0.16 l0.08 -0.08 l-0.04 -0.04 l-0.08 0 c0 -0.08 0.16 -0.12 0.28 -0.12 l0.04 0 c0.08 0 0.2 -0.2 0.2 -0.28 l-0.04 -0.08 l0.04 0 c0.08 0 0.44 -0.56 0.52 -0.8 c0.08 -0.16 0.24 -0.44 0.48 -0.76 l0.16 -0.28 c0 -0.08 0.04 -0.16 0.08 -0.24 l0.16 -0.32 l-0.08 0.04 c-0.04 0.04 -0.08 0.04 -0.12 0.04 c-0.08 0 -0.16 0.04 -0.2 0.12 l-0.12 0.08 l-0.04 -0.08 c0 -0.04 0 -0.04 0.04 -0.04 c0.04 -0.04 0.12 -0.08 0.12 -0.12 c0 -0.08 0.36 -0.64 0.56 -0.84 c0.08 -0.12 0.24 -0.24 0.32 -0.28 l0.48 -0.16 l0.4 0.08 c0.36 0.04 0.92 0.28 1.28 0.56 l0.24 0.12 c0.04 0 0.16 0.08 0.28 0.2 s0.28 0.24 0.36 0.28 c0.24 0.12 0.76 0.8 1.04 1.4 c0.2 0.4 0.24 0.52 0.24 0.76 c0 0.32 0.04 0.56 0.12 0.56 c0.04 0 0.04 0.08 0.04 0.16 l-0.04 0.12 l0.12 0 l0 0.04 c0 0.04 0 0.12 -0.08 0.24 l-0.08 0.2 c0 0.04 0 0.04 0.04 0.04 s0.08 -0.04 0.08 -0.12 s0.16 -0.28 0.28 -0.28 c0.08 0 0.2 -0.08 0.2 -0.12 l-0.04 -0.04 c-0.04 0 -0.08 0 -0.08 -0.04 s0.04 -0.08 0.08 -0.08 s0.12 -0.2 0.12 -0.32 l-0.04 -0.12 l-0.04 -0.04 c0 -0.04 0.04 -0.08 0.08 -0.08 s0.04 -0.04 0.04 -0.04 l0 -0.04 l0.04 -0.04 l0.04 0.04 c0.08 0 0.16 -0.16 0.16 -0.28 l0 -0.04 c0 -0.04 0.04 -0.2 0.12 -0.32 l0.12 -0.12 l0 0.04 c0 0.04 0 0.08 0.04 0.08 l0.04 0 c0.08 -0.04 0.36 -0.36 0.36 -0.52 l0 -0.08 l-0.2 0.16 l0.04 -0.16 c0.12 -0.16 0.24 -0.32 0.32 -0.32 l0.04 0 l-0.04 -0.04 c0 -0.08 0.36 -0.68 0.56 -0.84 l0.04 -0.04 l0 0.04 l-0.12 0.24 l-0.04 0.12 l0.08 -0.04 c0.08 -0.04 0.32 -0.36 0.32 -0.44 l-0.08 -0.08 c0 -0.04 0.04 -0.16 0.16 -0.28 l0.16 -0.16 l0 0.24 c0.04 0 0.08 -0.04 0.08 -0.12 c0 -0.04 0.04 -0.08 0.08 -0.08 c0.08 0 0.08 -0.04 0.08 -0.08 l-0.04 -0.16 c0 -0.16 0.28 -0.44 0.44 -0.44 l0.08 0 l-0.08 -0.24 l0.12 0 c0.04 0 0.04 0 0.04 -0.04 c0 -0.08 0.04 -0.12 0.08 -0.12 s0.08 -0.04 0.12 -0.08 l0.04 -0.04 l0.04 0 c0.04 0 0.2 0 0.36 -0.04 c0.12 -0.04 0.2 -0.04 0.28 -0.04 c0.12 0 0.24 0.04 0.4 0.08 c0.24 0.08 0.48 0.2 0.56 0.28 c0.28 0.24 0.64 0.52 1 0.76 c0.2 0.16 0.36 0.32 0.44 0.48 l0.12 0.28 l0.08 0.16 c0.04 0.04 0.08 0.08 0.08 0.12 l0.08 0.16 c0.24 0.32 0.4 0.88 0.4 1.72 l0 2.68 s0.04 0.4 0.04 0.88 l0.08 1.68 l0.04 0.92 l-0.08 -0.12 c-0.04 -0.04 -0.04 -0.08 -0.08 -0.08 l-0.04 0.12 l0.04 0.08 c0.04 0.04 0.04 0.16 0.04 0.32 l0 0.24 c0 0.28 0 0.44 0.04 0.52 l0.04 0.08 l-0.04 0.16 l-0.08 0.08 l-0.08 -0.04 c0 -0.04 -0.08 -0.04 -0.12 -0.04 s-0.08 0 -0.08 0.08 l0.08 0 c0.08 0 0.08 0 0.08 0.04 s0 0.04 -0.04 0.04 s-0.04 0.08 -0.04 0.2 s-0.04 0.16 -0.08 0.16 s-0.08 0 -0.08 -0.08 c-0.04 -0.04 -0.08 -0.08 -0.16 -0.08 c0 0 -0.04 0 -0.04 0.04 s-0.08 0.08 -0.12 0.12 c-0.08 0 -0.12 0.08 -0.12 0.12 s-0.04 0.08 -0.12 0.08 c-0.04 0 -0.04 0 -0.04 -0.04 l0.04 -0.16 l0.04 -0.08 l-0.08 -0.04 c-0.04 0 -0.08 -0.04 -0.12 -0.08 l-0.04 -0.08 l0 0.04 c0 0.04 -0.04 0.08 -0.12 0.08 l-0.12 0 c-0.12 0 -0.24 -0.04 -0.24 -0.08 s-0.08 -0.2 -0.24 -0.44 l-0.24 -0.44 c0 -0.04 -0.04 -0.08 -0.12 -0.16 c-0.08 -0.04 -0.16 -0.16 -0.2 -0.24 c-0.08 -0.2 -0.2 -0.96 -0.24 -1.28 c0 -0.08 0 -0.24 -0.04 -0.28 c-0.08 -0.24 -0.16 -1.84 -0.16 -3.24 l0.04 -1.44 c0 -0.24 0 -0.48 -0.04 -0.56 l0 -0.16 l-0.32 0.28 c0 0.04 -0.08 0.2 -0.2 0.36 l-0.2 0.32 c0 0.04 -0.16 0.16 -0.32 0.32 c-0.16 0.2 -0.32 0.36 -0.32 0.44 c0 0.2 -0.04 0.28 -0.08 0.28 s-0.16 0.16 -0.28 0.36 l-0.44 0.6 c-0.16 0.2 -0.28 0.4 -0.28 0.52 l0 0.08 l0.04 -0.04 c0 -0.04 0.08 -0.08 0.12 -0.08 s0.08 0.04 0.08 0.08 c0 0.08 -0.12 0.32 -0.28 0.56 c-0.4 0.6 -0.36 0.6 -0.76 1.36 c-0.24 0.44 -0.36 0.68 -0.4 0.68 l-0.04 0 l0.04 -0.16 c0 -0.04 0 -0.04 -0.04 -0.04 s-0.12 0.04 -0.2 0.16 l-0.04 0.16 l0.08 0.28 c0 0.04 0 0.04 -0.04 0.04 l-0.08 -0.08 l-0.08 -0.04 l-0.04 0.08 c0 0.04 -0.04 0.16 -0.08 0.2 c-0.24 0.4 -0.48 1 -0.48 1.16 l0 0.08 l0.04 -0.04 c0.04 -0.08 0.08 -0.16 0.08 -0.24 s0.04 -0.12 0.08 -0.12 c0.08 0 0.08 -0.04 0.08 -0.08 l-0.04 -0.04 l0.04 0 c0.04 0 0.08 -0.08 0.08 -0.12 c0 -0.08 0.04 -0.12 0.04 -0.12 c0.04 0 0.08 0.04 0.08 0.08 s-0.04 0.08 -0.08 0.12 l-0.04 0.16 c0 0.04 -0.04 0.12 -0.08 0.12 l-0.04 0.08 l-0.04 0.16 c-0.08 0.08 -0.16 0.4 -0.36 0.96 c-0.04 0.16 -0.08 0.44 -0.08 0.64 s0 0.4 -0.08 0.48 l-0.08 0.08 l0 -0.04 l-0.04 -0.08 l-0.04 0.08 l-0.12 0.04 l-0.04 0 l0 -0.08 c0 -0.04 0 -0.04 -0.04 -0.04 s-0.08 0 -0.08 0.04 l0 0.04 c0 0.08 -0.08 0.12 -0.16 0.12 l-0.16 0 l0.04 0.04 c0.04 0.04 0.08 0.08 0.08 0.12 l-0.04 0.12 c-0.04 0 -0.12 0 -0.16 -0.04 l-0.16 -0.04 c-0.16 -0.04 -0.2 -0.12 -0.24 -0.32 l0 -0.12 l-0.04 0.04 c-0.04 0.04 -0.08 0.04 -0.12 0.04 c-0.16 0 -0.4 -0.12 -0.4 -0.28 l-0.04 -0.04 l-0.16 0.04 c-0.16 0 -0.32 -0.16 -0.4 -0.36 c0 -0.08 -0.08 -0.16 -0.12 -0.2 c-0.08 -0.04 -0.12 -0.12 -0.12 -0.2 c0 -0.16 -0.08 -0.28 -0.4 -0.6 c-0.08 -0.04 -0.08 -0.12 -0.08 -0.2 c0.04 -0.08 0.08 -0.56 0.08 -1.04 c0.04 -0.52 0.04 -1.04 0.04 -1.16 c0.04 -0.12 0.04 -0.6 0.08 -1.04 c0 -0.72 0.04 -0.92 0.12 -0.92 l0.04 0 c0.04 0 0.08 -0.08 0.12 -0.32 l0 -0.12 c0 -0.08 0 -0.16 -0.04 -0.16 l-0.08 0.16 l-0.04 0.2 c-0.04 -0.16 -0.08 -0.16 -0.08 -0.52 c0 -0.4 0.08 -0.92 0.12 -0.96 l0.04 -0.08 l-0.04 0 l-0.04 -0.04 c0 -0.04 0 -0.24 -0.04 -0.44 l-0.04 -0.32 l-0.24 0.48 l0.04 0.08 c0 0.04 0 0.04 -0.04 0.04 s-0.2 0.16 -0.32 0.4 c-0.2 0.4 -0.28 0.56 -0.36 0.56 l-0.08 -0.04 c-0.08 0 -0.24 0.16 -0.28 0.28 l0.04 0.32 c0 0.2 -0.12 0.56 -0.28 0.68 l-0.04 0 l0.04 -0.04 l0 -0.08 l-0.08 0.08 c-0.16 0.12 -0.28 0.28 -0.28 0.36 l0.04 0 c0.04 0 0.08 -0.04 0.12 -0.08 l0.08 -0.08 l0 0.08 c0 0.12 -0.12 0.4 -0.2 0.4 c-0.04 0 -0.04 0.08 -0.08 0.16 l-0.04 0.24 c-0.04 0 -0.08 0 -0.08 0.04 l-0.36 0.88 l-0.28 0.6 c-0.12 0.28 -0.2 0.4 -0.24 0.4 l-0.04 -0.24 l-0.2 0.32 c-0.04 0 -0.08 0.08 -0.08 0.2 c-0.04 0.12 -0.08 0.24 -0.12 0.24 l-0.04 0.16 l0.16 -0.08 l0.16 -0.16 l0.04 0.04 l-0.28 0.72 c-0.2 0.44 -0.32 1.16 -0.32 1.64 c0 0.28 0 0.52 -0.04 0.56 c-0.04 0.08 -0.28 0.2 -0.52 0.28 z M15.52 23.24 l0.2 -0.2 l-0.04 -0.08 l-0.08 0 c-0.04 0 -0.08 0.08 -0.12 0.16 l0 0.04 c0 0.04 0 0.08 0.04 0.08 z M7.64 23.52 l0.24 -0.08 c0.04 -0.04 0.08 -0.04 0.08 -0.08 l-0.04 0 l-0.2 0.08 z M7.56 24.240000000000002 l0.04 -0.04 l0 -0.12 c-0.04 0 -0.08 0 -0.08 0.08 c0 0.04 0 0.08 0.04 0.08 z M14.4 24.6 l0.08 -0.12 l-0.04 0 l-0.08 0.04 c0 0.04 0 0.08 0.04 0.08 z M6.76 24.880000000000003 c-0.04 0 -0.04 -0.04 -0.04 -0.12 c0.04 -0.2 0.04 -0.2 0.2 -0.2 c0.08 0 0.2 0 0.2 0.04 s-0.28 0.28 -0.36 0.28 z M16.2 24.96 l0.08 -0.08 c0.04 -0.04 0.04 -0.08 0.04 -0.12 l0 -0.04 c-0.04 0 -0.04 0.04 -0.04 0.04 l-0.08 0.16 l0 0.04 z M6.48 25.6 l-0.16 -0.08 l0.08 -0.16 l0.28 -0.4 l0.04 0 l0.04 0.08 c0 0.12 -0.04 0.28 -0.12 0.4 s-0.12 0.16 -0.16 0.16 z M16.32 25.240000000000002 l0.08 -0.04 l-0.04 -0.08 l-0.08 0.08 c0 0.04 0 0.04 0.04 0.04 z M16.76 25.28 c0.04 0 0.04 0 0.04 -0.08 c0 -0.04 -0.04 -0.04 -0.04 -0.04 l-0.04 0.08 z M16.84 25.6 c0.04 0 0.08 -0.04 0.12 -0.08 s0.08 -0.16 0.08 -0.24 c0 -0.04 0 -0.08 -0.04 -0.08 c-0.08 0 -0.12 0.04 -0.12 0.08 l0.08 0.16 l-0.08 0.12 c-0.04 0 -0.04 0 -0.04 0.04 z M15.52 25.4 l0.04 -0.08 l-0.04 -0.08 l0 0.16 z M16.32 25.8 c0.12 0 0.28 -0.08 0.36 -0.2 l0.04 -0.12 c0 -0.04 0 -0.04 -0.08 -0.04 c-0.04 0 -0.08 0.04 -0.08 0.12 c-0.04 0.08 -0.12 0.16 -0.2 0.16 l-0.28 -0.12 l0 0.08 c0.04 0.08 0.12 0.12 0.24 0.12 z M6.16 26.2 c-0.04 0 -0.08 -0.04 -0.08 -0.08 l0 -0.08 c0 -0.08 0 -0.12 0.04 -0.12 l0.04 0.04 l0.08 0 l-0.08 -0.04 l-0.04 -0.12 l0.04 -0.08 c0.04 -0.04 0.08 -0.08 0.12 -0.08 s0.04 0.08 0.04 0.2 l0 0.16 c-0.04 0.12 -0.08 0.2 -0.16 0.2 z M15.44 25.759999999999998 c0 -0.04 -0.08 -0.08 -0.12 -0.08 l-0.04 0.04 c0 0.04 0.04 0.04 0.08 0.04 l0.08 0 z M16.12 26.28 l0.04 -0.04 l-0.04 -0.04 c0 -0.08 0 -0.12 0.04 -0.16 l0.04 -0.04 l-0.04 -0.04 c-0.04 0 -0.08 0.04 -0.12 0.08 c0 0.04 0.04 0.24 0.08 0.24 z M15.8 26.64 c0.04 0 0.08 -0.04 0.08 -0.08 l0 -0.04 l-0.04 0 c-0.04 0 -0.04 0 -0.04 0.04 l0 0.08 z M5.88 26.72 l0 -0.12 l0.04 0.08 z M13.2 26.72 l0.08 -0.12 l-0.04 0 c-0.04 0 -0.08 0.04 -0.08 0.08 s0 0.04 0.04 0.04 z M16.16 26.72 l0.08 -0.04 c0 -0.04 0 -0.04 -0.04 -0.04 s-0.04 0 -0.04 0.04 l0 0.04 z M16.52 27 l-0.04 0 l0.04 -0.16 c0.08 -0.12 0.16 -0.2 0.2 -0.2 l0 0.04 c0 0.12 -0.08 0.28 -0.2 0.32 z M15.2 27.52 l0.2 -0.12 l0.08 -0.12 l-0.04 -0.04 c-0.04 -0.04 -0.04 -0.12 -0.04 -0.16 c0 -0.08 0 -0.16 0.04 -0.16 l0.08 -0.12 l0 -0.12 c-0.04 0 -0.12 0.04 -0.16 0.2 c-0.08 0.08 -0.16 0.16 -0.2 0.16 l-0.04 0 l-0.08 0.28 c-0.08 0 -0.08 0.04 -0.08 0.08 l0.08 0.04 l0.16 -0.04 l0.04 0.04 z M15.72 26.880000000000003 c0.04 0 0.08 -0.08 0.08 -0.12 s0 -0.08 -0.04 -0.08 l-0.12 0.2 l0.08 0 z M12.2 27.119999999999997 l-0.04 -0.08 c0 -0.04 -0.04 -0.04 -0.04 -0.04 c0 0.08 0.04 0.12 0.04 0.12 l0.04 0 z M14.92 27.119999999999997 l0.04 -0.08 l0 -0.04 l-0.04 0 c-0.04 0.04 -0.08 0.08 -0.08 0.12 l0.08 0 z M12.16 27.439999999999998 l0.08 -0.12 l-0.08 -0.04 c-0.04 0 -0.04 0.04 -0.04 0.08 s0 0.08 0.04 0.08 z M19.88 27.52 l0.08 -0.12 l-0.04 -0.08 c-0.04 0 -0.04 -0.04 -0.04 -0.04 c-0.04 0 -0.04 0.04 -0.04 0.12 s0 0.12 0.04 0.12 z M9 27.439999999999998 l0 -0.04 l-0.04 -0.08 c-0.04 0 -0.04 0.04 -0.04 0.08 z M14.12 27.560000000000002 c0.04 0 0.08 -0.04 0.08 -0.08 s-0.04 -0.08 -0.08 -0.08 s-0.04 0.04 -0.04 0.08 s0 0.08 0.04 0.08 z M13.84 27.64 l0.08 -0.08 c0 -0.04 0 -0.04 -0.04 -0.04 s-0.04 0 -0.04 0.04 l0 0.08 z M15.12 27.880000000000003 c0.04 0 0.08 -0.04 0.08 -0.08 l-0.04 -0.12 l-0.08 -0.04 l-0.04 0.08 l0 0.08 l0.04 0.08 l0.04 0 z M15.36 27.8 c0.04 0 0.08 -0.04 0.08 -0.08 s0 -0.04 -0.04 -0.04 l-0.04 0 l-0.04 0.08 c0 0.04 0.04 0.04 0.04 0.04 z M8.6 28.08 c0.04 0 0.08 -0.04 0.08 -0.08 s-0.04 -0.12 -0.08 -0.12 s-0.08 0.04 -0.08 0.12 l0.04 0.08 l0.04 0 z M15.8 28.119999999999997 c-0.04 0 -0.08 -0.04 -0.08 -0.08 s0.04 -0.08 0.08 -0.08 l0.04 0 l0 0.04 c0 0.08 0 0.12 -0.04 0.12 z M19.92 28.36 l0.04 -0.08 c0.04 -0.08 0.04 -0.16 0.04 -0.2 s0 -0.08 -0.04 -0.08 s-0.04 0.04 -0.04 0.12 l0 0.24 z M9.56 28.72 c0.04 0 0.08 -0.24 0.08 -0.48 l0 -0.04 l-0.04 0.16 z M13.92 28.32 l0.12 -0.12 l-0.16 0.08 c0 0.04 0 0.04 0.04 0.04 z M12.88 28.36 c0.04 0 0.04 -0.04 0.04 -0.08 l0 -0.04 l-0.08 0.04 c0 0.04 0 0.08 0.04 0.08 z M13.56 28.36 l0.08 -0.04 l-0.12 -0.08 l-0.04 0.04 c0 0.04 0.04 0.08 0.08 0.08 z M14.24 28.6 c0.04 0 0.08 -0.08 0.08 -0.16 l0.04 -0.12 c-0.04 0 -0.08 0.04 -0.12 0.12 l-0.04 0.12 z M14.52 28.48 l0.04 -0.08 l-0.08 -0.04 c-0.04 0 -0.04 0 -0.04 0.04 z M12.72 28.6 l0.04 -0.08 l-0.04 -0.08 l0 0.16 z M15.12 29 c0 -0.12 0.2 -0.48 0.28 -0.48 l0.08 0.04 l-0.04 0.08 c-0.08 0.12 -0.28 0.36 -0.32 0.36 z M13.56 28.759999999999998 l0.04 -0.08 l-0.04 -0.08 l-0.04 0.08 z M5.04 28.759999999999998 l0.04 -0.04 l-0.04 -0.08 c-0.04 0 -0.08 0.04 -0.08 0.08 z M8.32 28.92 l-0.04 -0.08 c0 -0.04 0.04 -0.08 0.12 -0.08 l0.08 0 z M13.84 29.32 c0.04 0 0.04 -0.08 0.04 -0.12 s0.04 -0.04 0.04 -0.04 l0.04 0 c0.04 0 0.04 0 0.04 -0.08 l0 -0.04 l-0.08 0 l-0.12 0.24 c0 0.04 0 0.04 0.04 0.04 z M14.6 29.16 l-0.08 -0.08 l-0.08 0 l0 0.04 l0.12 0.04 l0.04 0 z M13.24 29.28 c0.04 0 0.04 0 0.04 -0.04 l-0.04 -0.08 l-0.08 0.08 z M14.28 29.48 c0.04 0 0.04 -0.04 0.04 -0.12 c0 -0.04 0 -0.04 -0.04 -0.04 l-0.12 0 l-0.08 -0.04 l-0.08 0.04 l-0.04 0.04 l0.04 -0.04 c0.08 0 0.16 0.04 0.2 0.08 z M14.2 30.240000000000002 c0.04 0 0.12 -0.04 0.2 -0.12 l0.08 -0.16 l0.16 -0.28 c0.08 -0.12 0.16 -0.24 0.16 -0.32 c0 -0.04 -0.04 -0.08 -0.08 -0.08 l-0.12 0.16 z M13.24 29.52 l0.04 -0.04 l-0.04 -0.04 c0 -0.04 -0.04 -0.08 -0.08 -0.08 c0 0 -0.04 0 -0.04 0.04 c0 0.08 0.08 0.12 0.12 0.12 z M7.88 29.6 l0.08 -0.04 l-0.12 -0.08 l0 0.04 c0 0.04 0 0.08 0.04 0.08 z M14.12 29.8 c0 0 0 -0.08 -0.04 -0.12 l-0.04 0 l0.04 0.12 l0.04 0 z M13.48 29.84 l0.04 -0.04 c0.08 -0.04 0.08 -0.08 0.08 -0.12 c-0.04 0 -0.08 0 -0.08 0.08 z M9.48 31.04 l0 -0.04 c0.04 -0.04 0.08 -0.32 0.08 -0.64 c0 -0.28 0 -0.56 -0.04 -0.56 s-0.04 0.04 -0.04 0.08 c0 0.08 0 0.4 -0.04 0.68 c0 0.32 0 0.48 0.04 0.48 z M13.2 30.240000000000002 c0.04 0 0.12 -0.04 0.16 -0.12 l0.04 -0.2 l-0.04 0 s0 0.12 -0.12 0.2 z M12.76 30.08 c0.04 0 0.04 -0.04 0.04 -0.08 l0 -0.04 l-0.08 0.04 c0 0.04 0 0.08 0.04 0.08 z M12.96 30.28 l0.04 -0.04 l-0.04 -0.08 l0 0.12 z M12.48 30.36 l0.04 -0.04 l0.04 -0.08 l0 -0.04 l-0.08 0.08 l0 0.08 z M14.08 30.68 c0.04 0 0.12 -0.08 0.12 -0.12 c0 -0.08 0 -0.16 -0.04 -0.24 c0 -0.04 -0.04 -0.04 -0.04 -0.04 c-0.04 0 -0.04 0.04 -0.08 0.16 l-0.08 0.2 c0 0.04 0.04 0.04 0.12 0.04 z M13.36 30.560000000000002 l0.04 -0.08 c0 -0.04 0 -0.04 -0.04 -0.04 l-0.08 0.04 z M13.64 30.6 c0.04 0 0.08 -0.04 0.12 -0.12 c0 -0.04 -0.04 -0.04 -0.08 -0.04 s-0.08 0.04 -0.08 0.08 z M7.32 30.8 c0.04 0 0.08 -0.04 0.08 -0.08 s-0.08 -0.16 -0.12 -0.16 l0 0.04 l-0.04 0.16 c0 0.04 0 0.04 0.04 0.04 l0.04 0 z M13.88 30.92 c0.04 0 0.08 -0.04 0.08 -0.12 c0 -0.04 0 -0.04 -0.04 -0.04 l-0.04 0 c-0.04 0 -0.04 0.04 -0.04 0.08 s0 0.08 0.04 0.08 z M12.92 30.96 l0 -0.08 c0 -0.08 0 -0.08 -0.04 -0.08 c-0.04 0.04 -0.04 0.08 -0.04 0.12 z M13.32 30.96 c0.04 0 0.04 -0.04 0.04 -0.08 c0 -0.08 -0.04 -0.08 -0.08 -0.08 l0 0.08 z M13.04 31.08 l0.08 -0.08 l-0.04 -0.04 c-0.04 0 -0.08 0.04 -0.08 0.08 c0 0 0 0.04 0.04 0.04 z M13.64 31.52 c0.04 0 0.08 -0.04 0.12 -0.12 s0.08 -0.2 0.08 -0.28 c0 -0.04 -0.04 -0.08 -0.08 -0.08 s-0.04 0 -0.08 0.16 l-0.04 0.12 c-0.04 0.04 -0.04 0.08 -0.04 0.16 z M12.52 31.72 c0.04 0 0.08 -0.04 0.08 -0.08 s0 -0.08 0.08 -0.12 c0.04 -0.04 0.08 -0.16 0.08 -0.24 l0.04 -0.2 c-0.24 0.24 -0.32 0.4 -0.32 0.56 c0 0.04 0 0.08 0.04 0.08 z M13.28 31.2 l0 -0.04 c0 -0.04 0 -0.08 -0.04 -0.08 s-0.04 0.04 -0.04 0.08 z M9.48 31.48 c0.04 -0.04 0.04 -0.08 0.04 -0.16 l-0.08 -0.12 c-0.04 0 -0.04 0.04 -0.04 0.12 l0.04 0.12 c0 0.04 0 0.04 0.04 0.04 z M6.68 31.92 c0.04 0 0.12 -0.08 0.2 -0.2 l0.12 -0.28 c0 -0.04 -0.04 -0.08 -0.08 -0.08 c0 0 -0.08 0.08 -0.08 0.2 z M6.16 31.92 c0.04 0 0.04 -0.04 0.04 -0.08 c0 0 0 -0.04 -0.04 -0.04 l-0.08 0.04 z M12.4 31.96 l0.08 -0.12 l-0.04 -0.04 l-0.04 0.04 c-0.04 0 -0.04 0.04 -0.04 0.08 s0 0.04 0.04 0.04 z M12.72 32.08 l0.04 -0.16 c-0.04 0 -0.04 0 -0.04 0.04 c-0.04 0 -0.08 0.04 -0.08 0.08 s0.04 0.04 0.08 0.04 z M6.52 32.44 c0.08 -0.2 0.16 -0.32 0.16 -0.4 l0 -0.04 c-0.04 0 -0.08 0.12 -0.12 0.24 z M12.48 32.12 l0.04 -0.04 l-0.04 -0.04 l0.04 0 l-0.04 -0.04 l0 0.12 z M12.36 32.56 c0.04 0 0.08 -0.04 0.12 -0.12 l0.04 -0.12 l-0.08 0.08 c-0.04 0.04 -0.08 0.08 -0.08 0.12 l0 0.04 z M13.12 32.64 l-0.04 0 l0 -0.04 c0 -0.04 0.08 -0.2 0.16 -0.2 c0.04 0 0.04 0 0.04 0.04 s0 0.08 -0.08 0.16 z M20.24 32.88 l-0.04 -0.08 c0 -0.04 0 -0.04 0.04 -0.04 s0.08 0 0.08 0.04 z M5.76 33.12 l0.04 -0.04 l-0.08 -0.08 l-0.04 0.04 c0 0.04 0.04 0.08 0.08 0.08 z M7.16 33.32 l-0.04 0 l0 -0.12 l0.04 0 l0 0.12 z M19.48 33.4 l0.08 -0.04 l-0.12 -0.04 c0 0.04 0 0.08 0.04 0.08 z M19.84 33.480000000000004 l0.04 -0.08 c0 -0.04 0 -0.04 -0.04 -0.04 l-0.08 0.04 z M12.52 33.96 l0.08 -0.12 l-0.12 -0.16 l0 0.28 l0.04 0 z M24.932000000000002 36.56 c-0.16 0 -0.28 0 -0.4 -0.04 c-1.08 -0.28 -2.04 -1 -2.68 -1.96 l-0.4 -0.52 c-0.2 -0.2 -0.68 -1.36 -0.72 -1.88 l-0.04 -1.28 c0 -0.2 0.16 -0.92 0.24 -1.08 l0.04 -0.24 l0.12 -0.56 c0.08 -0.2 0.12 -0.44 0.12 -0.44 l-0.04 -0.08 c0 -0.16 0.16 -0.56 0.44 -1 c0.16 -0.32 0.24 -0.44 0.28 -0.44 l0 0.12 c0 0.12 0 0.12 0.04 0.12 c0.04 -0.04 0.08 -0.16 0.08 -0.24 l0 -0.04 c0 -0.24 0.24 -0.92 0.4 -1.16 c0.04 -0.04 0.08 -0.08 0.08 -0.12 l0 -0.04 c0 -0.04 0.04 -0.12 0.12 -0.16 c0.24 -0.36 1.04 -1.72 1.04 -1.8 c0 -0.12 0.36 -0.48 0.68 -0.6 c0.16 -0.08 0.24 -0.08 0.32 -0.08 l0.32 0.08 l0.72 0.36 l0.36 0.28 c0.36 -0.44 0.32 -0.6 1 -0.84 c0.2 -0.12 0.32 -0.16 0.44 -0.16 c0.16 0 0.32 0 0.6 0.04 c0.84 0.08 1.56 0.44 2.16 0.96 c1.32 1.2 1.48 1.36 1.8 2.24 c0.2 0.52 0.4 1.64 0.4 2.08 l0 0.16 c-0.16 0.64 -0.44 1.36 -0.56 1.52 l-0.2 0.36 c-0.08 0.2 -0.52 0.96 -0.72 1.2 l-0.64 1 c-0.12 0.12 -0.2 0.28 -0.2 0.28 c0 0.04 -0.08 0.08 -0.16 0.16 c-0.08 0.04 -0.16 0.12 -0.16 0.16 s-0.08 0.16 -0.16 0.24 l-0.48 0.64 c-0.2 0.2 -0.36 0.4 -0.4 0.4 s-0.04 0.04 -0.04 0.08 c0 0.08 -0.04 0.16 -0.12 0.16 l-0.12 0.08 l0 0.04 c0 0.04 -0.04 0.08 -0.08 0.08 s-0.2 0.08 -0.28 0.24 l-0.64 0.6 l-0.4 0.28 l-0.56 0.36 c-0.28 0.24 -1.04 0.44 -1.6 0.44 z M23.132 34.08 c0.24 0 0.4 0 0.72 -0.08 c0.12 0 0.32 -0.08 0.48 -0.16 l0.8 -0.4 c0.12 -0.08 0.36 -0.28 0.56 -0.36 c0.44 -0.24 0.6 -0.4 1.2 -1.08 l0.64 -0.64 c0.08 -0.04 0.12 -0.16 0.12 -0.2 s0.04 -0.08 0.08 -0.08 s0.2 -0.2 0.36 -0.4 c0.12 -0.24 0.36 -0.56 0.48 -0.72 l1.12 -1.68 l0.16 -0.32 c0 -0.04 0.04 -0.2 0.12 -0.32 c0.36 -0.6 0.56 -1.28 0.56 -1.76 c0 -0.2 -0.04 -0.36 -0.16 -0.44 c-0.28 -0.2 -0.8 -0.32 -1.28 -0.32 c-0.28 0.04 -0.52 0.08 -0.68 0.16 c-0.12 0.08 -0.28 0.12 -0.32 0.12 c0 0 -0.2 0.16 -0.44 0.28 c-0.2 0.16 -0.4 0.32 -0.44 0.32 s-0.08 0.12 -0.08 0.24 c0 0.2 -0.04 0.28 -0.08 0.28 s-0.08 -0.04 -0.08 -0.12 c-0.04 -0.12 -0.04 -0.2 -0.12 -0.2 l-0.16 0.04 c-0.24 0 -0.28 -0.04 -0.44 -0.2 c-0.08 -0.16 -0.16 -0.2 -0.28 -0.2 s-0.28 0.08 -0.48 0.32 c-0.12 0.16 -0.28 0.28 -0.32 0.28 l-0.04 0 l-0.08 0.16 c-0.04 0.12 -0.08 0.2 -0.16 0.2 l-0.08 0.04 l0 0.04 c0 0.32 -0.08 0.48 -0.32 0.6 c-0.16 0.08 -0.2 0.12 -0.2 0.24 l0 0.04 c0 0.04 -0.04 0.2 -0.12 0.28 l-0.16 0.32 c0 0.04 -0.04 0.12 -0.12 0.16 c-0.04 0.04 -0.08 0.08 -0.08 0.12 l0.04 0.2 c0 0.12 -0.04 0.2 -0.12 0.32 c-0.12 0.16 -0.2 0.28 -0.2 0.32 l0 0.04 c0 0.08 -0.04 0.32 -0.24 0.92 c-0.2 0.68 -0.36 1.28 -0.36 1.52 l-0.04 0.24 c-0.04 0.16 -0.08 0.72 -0.08 1.12 l0 0.4 c0.04 0.32 0.08 0.32 0.32 0.36 z M22.372000000000003 26.36 c0.08 0 0.08 -0.04 0.08 -0.08 l-0.04 -0.08 l-0.08 0.08 z M21.332 28.96 c0 -0.04 0 -0.08 -0.04 -0.12 l-0.04 0.04 c0.04 0.08 0.04 0.08 0.08 0.08 z M21.212000000000003 29.240000000000002 l0.08 -0.04 c0 -0.04 0 -0.08 -0.04 -0.08 s-0.08 0.04 -0.08 0.08 z M37.34400000000001 36.88 l-0.04 -0.08 c-0.04 -0.12 -0.28 -0.24 -0.44 -0.24 c-0.04 0 -0.12 0 -0.12 -0.08 c0 -0.04 -0.12 -0.08 -0.28 -0.08 c-0.2 -0.04 -0.2 -0.08 -0.2 -0.16 c0 -0.12 -0.04 -0.16 -0.12 -0.16 c-0.04 0 -0.12 -0.04 -0.12 -0.08 c-0.04 -0.08 -0.28 -0.2 -0.36 -0.2 l-0.04 0 c0 -0.04 -0.12 -0.16 -0.28 -0.32 s-0.32 -0.36 -0.36 -0.52 c-0.08 -0.12 -0.16 -0.32 -0.24 -0.4 l-0.08 -0.28 c0 -0.04 -0.08 -0.12 -0.12 -0.12 l-0.04 -0.04 l0.04 -0.08 l0.08 -0.04 l0.08 0.04 l0.04 0.08 c0.04 0 0.08 -0.04 0.08 -0.12 c0 -0.04 -0.04 -0.08 -0.08 -0.08 l-0.08 0 c0 -0.04 0.04 -0.08 0.12 -0.12 c0.12 0 0.12 -0.04 0.12 -0.2 s0 -0.24 -0.08 -0.24 c-0.08 -0.04 -0.16 -0.12 -0.16 -0.2 l0.04 -0.08 l0 -0.12 c0 -0.04 0 -0.08 0.04 -0.08 s0.04 0.04 0.04 0.08 l0 0.08 c0 0.12 0.04 0.2 0.04 0.2 c0.08 0 0.08 -0.16 0.08 -0.32 l0 -0.16 l-0.04 -0.08 l-0.04 0.08 l-0.04 0.04 c-0.04 0 -0.08 -0.04 -0.08 -0.16 c0 -0.08 0.04 -0.12 0.12 -0.12 c0.04 0 0.04 0 0.04 0.04 l0 0.08 l0.04 -0.04 l0.04 -0.12 c0 -0.12 -0.08 -0.28 -0.16 -0.28 l-0.04 -0.04 c0 -0.04 0.04 -0.04 0.08 -0.04 s0.08 -0.04 0.08 -0.12 c0 -0.12 -0.04 -0.16 -0.04 -0.16 l-0.04 -0.04 l0.04 -0.08 c0.04 -0.04 0.04 -0.16 0.04 -0.28 c0 -0.08 0.04 -0.16 0.08 -0.16 c0 0 0.04 0 0.04 -0.04 s-0.04 -0.04 -0.04 -0.04 l-0.08 0 l0 -0.04 c0 -0.04 0 -0.04 0.04 -0.04 l0.04 -0.08 l0 -0.04 c-0.04 -0.08 -0.04 -0.08 -0.04 -0.52 c0 -0.2 -0.04 -0.32 -0.12 -0.4 c-0.04 -0.04 -0.04 -0.08 -0.04 -0.12 l0.08 0 c0.04 0 0.08 -0.12 0.08 -0.44 l0 -0.28 c0 -0.68 0 -1.68 0.04 -2 l0.04 -0.56 l0 -0.52 c0 -0.16 -0.04 -0.2 -0.12 -0.2 c-0.04 -0.04 -0.08 -0.24 -0.08 -0.36 l0.04 -0.12 c0.04 0 0.04 0.08 0.08 0.2 l0.04 0.12 c0.04 0 0.04 -0.08 0.08 -0.32 c0 -0.24 0 -0.32 -0.08 -0.32 c-0.04 0 -0.08 -0.08 -0.08 -0.16 l0 -0.12 c0 -0.08 0.04 -0.12 0.04 -0.12 l0.08 0.04 c0.04 0 0.04 -0.08 0.04 -0.36 s0 -0.36 -0.08 -0.36 c-0.04 0 -0.08 -0.08 -0.08 -0.16 l0 -0.04 c0.04 0 0.08 0.04 0.12 0.08 l0.04 0.04 l-0.04 -0.24 c-0.08 0 -0.2 -0.12 -0.2 -0.2 l0 -0.08 l0.16 0.16 l-0.04 -0.4 c0 -0.08 -0.04 -0.24 -0.08 -0.28 l-0.04 -0.16 l0.04 -0.16 c0.08 -0.16 0.16 -0.24 0.28 -0.24 l0.12 0.04 c0.04 0.04 0.16 0.08 0.28 0.08 l0.12 0 c0.16 0 0.28 0.04 0.28 0.08 l0.08 0.08 c0.08 0.04 0.24 0.16 0.4 0.32 c0.12 0.12 0.28 0.24 0.32 0.24 l0.08 0 c0.08 0 0.32 0.2 0.32 0.28 c0 0.04 0.08 0.08 0.12 0.12 c0.08 0.04 0.08 0.08 0.08 0.12 s0 0.12 0.04 0.2 l0.12 0.16 l-0.08 -0.28 l0.08 -0.04 c0.04 0 0.08 0.04 0.08 0.12 c0.04 0.76 0.08 1.4 0.12 1.6 l0.04 -0.04 l0.08 -0.04 c0.08 0 0.12 0.08 0.12 0.24 l-0.04 0.24 c0 0.12 0.04 0.2 0.08 0.2 l0.04 0 c0.08 0 0.08 -0.08 0.08 -0.12 l0 -0.08 l0.08 -0.2 c0.08 -0.04 0.16 -0.12 0.16 -0.16 l0.08 -0.16 l0.04 -0.04 l0.04 0.04 c0 0.04 0 0.04 0.04 0.04 s0.04 -0.08 0.04 -0.12 c0 -0.08 0.04 -0.12 0.08 -0.12 l0.04 -0.08 c0 -0.04 0.04 -0.12 0.12 -0.2 l0.04 -0.12 c0 -0.04 -0.04 -0.08 -0.08 -0.08 l-0.04 0.04 c-0.08 0 -0.08 0 -0.08 -0.08 c0.04 -0.04 0.08 -0.08 0.16 -0.08 l0.32 -0.16 l0.2 -0.16 c-0.12 -0.12 -0.16 -0.2 -0.16 -0.24 c0.04 0 0.04 0 0.04 0.04 l0.04 0.04 c0.04 0 0.16 -0.08 0.2 -0.2 l0.08 -0.16 l-0.16 0.12 c-0.04 0.04 -0.04 0.08 -0.08 0.08 l-0.04 0 s0.08 -0.16 0.24 -0.36 l0.24 -0.28 l0.08 0.04 c0.12 0 0.24 -0.12 0.36 -0.28 l0 -0.08 l-0.08 0.08 l-0.12 0.04 l0.2 -0.32 l-0.04 -0.04 l0.04 0 c0.04 0 0.08 0 0.12 -0.04 l0.08 -0.04 l0.12 0.04 c0.04 0 0.2 -0.08 0.48 -0.32 l0.36 -0.2 l0.08 0 l-0.08 -0.04 l-0.24 0.04 l-0.08 0.04 l-0.08 -0.04 l-0.04 -0.04 l0 0.12 c0 0.08 -0.04 0.12 -0.12 0.12 l-0.12 -0.04 l-0.08 -0.04 l0.04 -0.04 l0.08 0 l0.16 -0.08 c0.04 -0.08 0.12 -0.16 0.16 -0.16 s0.16 -0.04 0.24 -0.12 s0.24 -0.16 0.32 -0.16 s0.2 -0.04 0.28 -0.12 l0.16 -0.04 s0.04 0 0.12 -0.08 l0.28 -0.08 c0.04 -0.04 0.2 -0.08 0.28 -0.08 s0.16 0 0.2 -0.04 l0.28 0 c0.16 0 0.32 0 0.4 -0.04 c0.16 -0.04 0.32 -0.04 0.44 -0.04 c0.08 0 0.16 0 0.2 0.04 l0.2 0.04 c0.16 0.04 0.28 0.08 0.36 0.16 s0.16 0.16 0.24 0.16 c0.04 0 0.08 0.04 0.12 0.12 c0 0.08 0.04 0.12 0.16 0.12 c0.08 0 0.12 0 0.12 0.04 l-0.08 0.12 c0 0.08 0.08 0.16 0.2 0.16 c0.04 0 0.08 0.04 0.08 0.08 l0.04 0.04 l0.08 0.04 l-0.04 0.12 c0 0.12 0 0.16 0.04 0.16 l0.08 -0.08 c0.04 0 0.04 0.04 0.08 0.08 s0.08 0.08 0.12 0.08 l0.04 0 c0.04 0 0.08 0.04 0.08 0.12 l-0.08 0.08 c0 0.04 0.04 0.08 0.12 0.12 s0.12 0.12 0.12 0.2 l-0.04 0.08 l-0.04 0 c-0.16 0 -0.24 0 -0.24 0.08 l0 0.04 l-0.08 0.16 c-0.08 0.04 -0.16 0.12 -0.24 0.2 s-0.16 0.08 -0.6 0.12 c-0.52 0 -0.68 0 -0.96 0.12 l-0.16 0 l0.04 -0.08 l0.04 -0.04 l0 -0.04 s-0.08 0.04 -0.12 0.12 c-0.08 0.12 -0.2 0.2 -0.28 0.2 l-0.08 -0.04 l-0.04 -0.04 l0 0.04 c0 0.04 0 0.04 -0.04 0.04 l-0.08 0 l0.12 0.12 l-0.04 0.04 l-0.04 0 l-0.04 -0.04 s-0.04 0 -0.08 0.08 c-0.04 0.04 -0.12 0.12 -0.16 0.12 s-0.08 0 -0.08 0.04 l0 0.04 c0 0.04 0 0.08 -0.04 0.08 s-0.12 -0.04 -0.12 -0.08 l-0.16 0.2 l0.16 -0.04 l-0.08 0.12 l-0.08 0.04 l-0.12 -0.12 l0 0.12 c0 0.12 -0.08 0.24 -0.2 0.24 c-0.04 0 -0.08 0 -0.08 0.04 l0 0.08 c-0.04 0 -0.08 0 -0.08 -0.04 c-0.04 -0.04 -0.08 -0.08 -0.16 -0.08 c-0.04 0 -0.08 0.04 -0.08 0.08 l0.04 0.04 c0.04 0 0.04 0.04 0.04 0.08 s0 0.04 -0.04 0.04 l-0.04 0 l-0.04 0.04 c-0.04 0.12 -0.08 0.16 -0.16 0.16 l-0.12 0 c-0.04 0 -0.08 0 -0.08 0.04 l0 0.08 c0 0.08 -0.04 0.16 -0.08 0.2 c-0.08 0.04 -0.16 0.2 -0.16 0.32 c0 0.04 -0.04 0.08 -0.08 0.08 l-0.08 0.16 c0 0.08 -0.04 0.12 -0.08 0.16 l-0.08 0.04 l0.04 0.12 c0 0.08 0 0.12 -0.08 0.12 c-0.04 0 -0.08 0 -0.08 -0.04 c-0.04 0 -0.08 0.08 -0.16 0.16 l-0.16 0.16 l0.12 0.12 l-0.16 0.16 l-0.04 -0.04 c0 -0.04 -0.04 -0.04 -0.16 -0.04 c-0.08 0.04 -0.12 0.08 -0.12 0.12 s0 0.04 0.08 0.04 l0.04 0 l-0.04 0.12 c-0.04 0.08 -0.08 0.12 -0.12 0.12 s-0.04 0 -0.04 -0.04 l-0.04 0.16 c0 0.16 0 0.28 0.04 0.28 c0 0.04 0 0.08 -0.12 0.16 c-0.08 0.08 -0.12 0.12 -0.16 0.12 c-0.08 0 -0.24 0.16 -0.24 0.28 c0 0.04 0 0.04 -0.04 0.04 s-0.04 0.08 -0.04 0.24 l0 0.16 l-0.04 -0.04 c-0.04 0 -0.08 0.08 -0.08 0.2 l0 0.2 c-0.04 0 -0.08 -0.04 -0.08 -0.08 l0 -0.08 l-0.08 0.12 l-0.08 0.28 c0 0.08 -0.04 0.08 -0.08 0.08 s-0.08 0.04 -0.08 0.08 l0 0.04 c0 0.04 -0.04 0.16 -0.08 0.2 c-0.08 0.08 -0.12 0.16 -0.12 0.2 c0 0.12 -0.08 0.24 -0.12 0.24 s-0.04 -0.04 -0.04 -0.08 l0 -0.04 c0 -0.08 -0.04 -0.12 -0.08 -0.12 l-0.04 0.04 l0.04 0.04 c0.04 0 0.08 0.16 0.08 0.32 c0 0.24 0 0.28 -0.12 0.4 c-0.08 0.08 -0.12 0.08 -0.12 0.12 l0.12 0.08 l-0.08 0.16 l0.12 0.12 c0 0.04 -0.04 0.08 -0.08 0.08 s-0.04 0 -0.04 -0.04 s0 -0.04 -0.04 -0.04 c0 0 -0.08 0.08 -0.08 0.2 l-0.12 0.36 c-0.08 0.08 -0.08 0.28 -0.12 0.48 c0 0.04 -0.04 0.12 -0.08 0.12 c-0.08 0.04 -0.12 0.08 -0.12 0.12 s0 0.08 -0.04 0.08 l-0.04 0 l0.04 0.12 l0.04 0.16 c-0.04 0.04 -0.08 0.72 -0.08 1.04 l0.04 1.08 c0.04 0.04 0.04 0.08 0.08 0.32 l0.12 0.32 c0 0.04 -0.08 0.08 -0.16 0.08 l-0.04 0 c-0.08 0 -0.08 0 -0.08 0.12 l0 0.08 c0 0.08 0 0.12 -0.04 0.16 s-0.08 0.08 -0.08 0.12 s-0.08 0.08 -0.16 0.08 s-0.12 -0.04 -0.12 -0.12 l0 -0.12 l-0.04 0.04 c-0.04 0 -0.04 0.04 -0.04 0.08 l0.08 0.16 z M41.584 22 l0.04 -0.04 c0 -0.04 0 -0.08 -0.04 -0.08 s-0.04 0.04 -0.04 0.08 z M40.464000000000006 22.52 l-0.04 -0.04 l0.04 -0.04 l0 -0.08 l0.04 0 l0.04 0.08 c0 0.04 -0.04 0.08 -0.08 0.08 z M40.264 22.92 l0.08 -0.04 c0.04 -0.04 0.08 -0.08 0.08 -0.12 l-0.04 0 c-0.04 0 -0.12 0.08 -0.12 0.16 z M40.06400000000001 22.88 l0 -0.04 l-0.04 0 c0 -0.04 0 -0.08 0.04 -0.08 l0.04 0.08 z M40.70400000000001 23.32 l0.08 -0.08 c0 -0.04 -0.04 -0.08 -0.08 -0.08 l-0.08 -0.04 l0.04 0.08 c0.04 0.04 0.04 0.08 0.04 0.12 l-0.04 0 l0.04 0 z M39.864000000000004 23.32 l-0.04 0 l0 -0.04 c0.04 -0.04 0.04 -0.08 0.08 -0.08 l0.04 0 l0 0.04 c-0.04 0.08 -0.08 0.08 -0.08 0.08 z M41.38400000000001 23.44 l0.16 -0.08 l0.08 -0.08 l-0.16 0.08 c-0.08 0.04 -0.08 0.08 -0.08 0.08 z M39.504000000000005 23.44 l0.04 -0.08 l0.04 -0.04 l-0.04 0.08 z M39.544000000000004 23.68 c0.04 0 0.16 -0.08 0.24 -0.16 l0.04 -0.08 c-0.04 0 -0.28 0.2 -0.28 0.24 z M40.544000000000004 23.52 l0.04 -0.08 l-0.04 0 l-0.08 0.08 l0.08 0 z M44.824000000000005 23.76 l0.08 -0.04 l-0.04 -0.08 l-0.12 0.08 s0 0.04 0.08 0.04 z M39.944 24.28 l0.04 -0.12 l-0.04 0 l-0.08 0.08 c0 0.04 0.04 0.04 0.08 0.04 z M42.864000000000004 24.48 c0.08 0 0.2 -0.04 0.32 -0.12 l0.08 -0.08 l-0.04 -0.08 l-0.04 0 s-0.04 0 -0.04 0.04 l-0.04 0.04 l-0.08 -0.04 l0.04 0.04 c0 0.04 -0.04 0.08 -0.16 0.08 l-0.12 0.08 z M42.504000000000005 24.36 l0.04 -0.04 l-0.08 -0.08 l-0.04 0.04 z M38.904 24.48 c-0.04 0 -0.04 0 -0.04 -0.04 c0 0 0.04 -0.08 0.12 -0.08 l0.08 -0.04 z M34.904 24.52 l-0.04 -0.08 l0.04 -0.04 c0.04 0 0.04 0.04 0.04 0.04 c0 0.04 0 0.08 -0.04 0.08 z M40.944 24.68 l0.04 -0.04 l-0.08 -0.08 l0 0.04 z M42.024 24.72 l0.08 -0.04 c0 -0.04 0 -0.08 -0.04 -0.08 l-0.08 0.08 s0 0.04 0.04 0.04 z M37.784000000000006 25.16 l-0.04 -0.16 c0 -0.08 0 -0.16 0.04 -0.16 s0.04 0.08 0.04 0.16 s0 0.16 -0.04 0.16 z M38.624 24.92 c0 0 -0.04 0 -0.04 -0.04 s0.04 -0.04 0.08 -0.04 l0 0.04 c0 0.04 -0.04 0.04 -0.04 0.04 z M39.184000000000005 25.28 l0.04 -0.04 c0 -0.04 0.08 -0.12 0.12 -0.16 l0.04 -0.04 l-0.04 -0.04 l-0.12 0.08 c-0.04 0.04 -0.08 0.04 -0.12 0.04 l-0.04 0 l0.04 0.08 z M41.104000000000006 25.28 c0.04 0 0.04 0 0.04 -0.04 l0.04 -0.04 l-0.04 -0.04 l-0.04 0 c-0.04 0 -0.04 0.04 -0.04 0.08 z M41.304 25.4 c0.08 0 0.16 -0.04 0.2 -0.08 l0.08 -0.12 l-0.08 0 c-0.04 0 -0.12 0.04 -0.2 0.12 l-0.04 0.08 l0.04 0 z M34.904 25.36 c-0.04 0 -0.04 -0.04 -0.04 -0.04 l0.08 -0.08 l0.04 0.08 z M41.584 25.52 c0 0 0.08 -0.04 0.08 -0.08 c0.04 0 0.08 -0.08 0.08 -0.12 l0 -0.04 c-0.04 0 -0.08 0 -0.12 0.04 l-0.08 0.16 c0 0.04 0 0.04 0.04 0.04 z M41.824000000000005 25.52 l0.12 -0.2 l-0.04 0 l-0.12 0.12 c0 0.08 0 0.08 0.04 0.08 z M37.70400000000001 25.759999999999998 c0.04 0 0.04 -0.04 0.08 -0.08 l0.12 -0.08 s-0.04 -0.04 -0.12 -0.04 s-0.08 0.04 -0.08 0.12 l0 0.08 z M41.224000000000004 25.880000000000003 c0.04 0 0.08 -0.04 0.16 -0.12 l0.08 -0.16 l-0.04 0 c-0.08 0.04 -0.2 0.24 -0.2 0.28 z M38.74400000000001 25.880000000000003 l0.12 -0.04 l0.08 -0.04 l-0.08 -0.04 l-0.08 0 l-0.12 0.08 z M40.74400000000001 26.04 l0.08 -0.08 c0.08 -0.04 0.12 -0.12 0.12 -0.16 c0 0 0 -0.04 -0.04 -0.04 c0 0.04 -0.04 0.04 -0.08 0.08 l-0.08 0.16 l0 0.04 z M39.42400000000001 25.92 l0.04 -0.04 l-0.04 -0.08 l-0.04 0 l-0.08 0.04 z M38.464000000000006 26 l0.08 -0.04 l-0.24 -0.12 l0.04 0.08 c0 0.04 0.08 0.08 0.12 0.08 z M37.74400000000001 26.240000000000002 l0.04 -0.08 l-0.08 -0.2 l0 0.28 l0.04 0 z M39.70400000000001 26.119999999999997 c0.04 0 0.08 -0.04 0.08 -0.08 s0 -0.04 -0.04 -0.04 l-0.08 0.04 z M41.304 26.119999999999997 c0.04 0 0.08 -0.04 0.08 -0.08 l-0.04 -0.04 l-0.08 0.08 z M38.584 26.16 c0.04 0 0.04 -0.04 0.08 -0.08 l0 -0.04 c-0.04 0 -0.08 0.04 -0.08 0.08 l0 0.04 z M34.904 26.32 c-0.04 0 -0.08 -0.04 -0.08 -0.12 s0 -0.12 0.04 -0.12 l0.08 0.16 c0 0.04 0 0.08 -0.04 0.08 z M38.264 26.560000000000002 l0.12 -0.04 l0.08 -0.08 s0 -0.08 0.04 -0.12 l0.08 -0.08 c-0.08 0 -0.32 0.24 -0.32 0.32 z M40.904 26.36 c0.04 0 0.08 0 0.08 -0.04 s0 -0.08 -0.04 -0.08 l-0.08 0.04 c0 0.08 0 0.08 0.04 0.08 z M37.74400000000001 26.439999999999998 c0.04 0 0.04 -0.04 0.04 -0.08 c0 0 0 -0.04 -0.04 -0.04 s-0.04 0.04 -0.04 0.08 l0 0.04 l0.04 0 z M34.864000000000004 26.48 l-0.08 -0.04 l0.08 -0.08 l0.04 0.08 z M34.824000000000005 26.759999999999998 l-0.04 -0.08 l0.08 -0.04 l0.04 0.04 z M37.944 27.119999999999997 l0.16 -0.08 l0.04 0.04 l0 -0.04 c0 -0.04 0 -0.04 -0.04 -0.04 s-0.08 0 -0.12 0.04 z M34.784000000000006 27.240000000000002 l-0.04 -0.08 l0.04 -0.04 l0.08 0.04 c0 0.04 -0.04 0.08 -0.08 0.08 z M34.824000000000005 27.92 c-0.04 0 -0.04 -0.04 -0.04 -0.12 c0 -0.04 0 -0.08 0.04 -0.08 l0.04 0.08 z M39.504000000000005 28.119999999999997 l0.04 -0.12 l-0.04 0 l-0.04 0.08 c0 0.04 0 0.04 0.04 0.04 z M39.944 28.16 c0.04 0 0.04 0 0.04 -0.04 l-0.04 -0.12 l-0.04 0 c-0.04 0 -0.04 0.04 -0.04 0.08 l0 0.04 z M39.144000000000005 28.439999999999998 c0.04 0 0.04 -0.04 0.04 -0.08 c0 0 0 -0.04 -0.04 -0.04 l-0.04 0 l-0.04 0.04 c0 0.08 0.04 0.08 0.08 0.08 z M39.464000000000006 28.439999999999998 l0.08 -0.04 c0 -0.04 0 -0.04 -0.08 -0.04 l-0.08 0.04 c0 0.04 0.04 0.04 0.08 0.04 z M38.184000000000005 28.84 c0.04 0 0.04 -0.04 0.04 -0.08 l-0.04 -0.04 c-0.04 0 -0.04 0 -0.04 0.04 z M38.98400000000001 28.92 l0.04 -0.08 c0 -0.04 0 -0.08 -0.04 -0.08 s-0.08 0.04 -0.08 0.12 z M38.34400000000001 28.96 l0.04 -0.08 l0 -0.04 l-0.04 0 c-0.04 0.04 -0.08 0.08 -0.08 0.12 l0.08 0 z M39.504000000000005 28.92 l-0.04 -0.08 l-0.08 0.04 c0 0.04 0.04 0.04 0.08 0.04 l0.04 0 z M34.784000000000006 29.16 l-0.04 -0.04 c-0.04 -0.04 -0.04 -0.08 -0.04 -0.12 l0.04 0 c0.04 0 0.04 0 0.04 0.04 l0 0.12 z M39.06400000000001 29.6 c0.04 0 0.08 -0.04 0.08 -0.08 c0 0 0 -0.04 -0.04 -0.04 l-0.04 0 l-0.04 0.12 l0.04 0 z M38.864000000000004 30.119999999999997 c0.04 0 0.04 -0.04 0.04 -0.08 l-0.04 -0.04 l-0.04 0.04 c0 0.04 0 0.08 0.04 0.08 z M38.184000000000005 31.119999999999997 c0 0 0.04 0 0.04 -0.04 s0 -0.04 -0.04 -0.04 c0 0 -0.04 0 -0.04 0.04 l0 0.04 l0.04 0 z M38.104000000000006 31.36 c0.04 0 0.04 -0.04 0.04 -0.08 c-0.04 -0.08 -0.08 -0.08 -0.08 -0.08 c-0.04 0 -0.04 0.04 -0.04 0.08 s0.04 0.08 0.08 0.08 z M37.944 32.2 c0.04 0 0.08 -0.04 0.08 -0.12 l-0.04 -0.08 l-0.04 0.08 l0 0.12 z M37.904 32.6 l0.12 -0.04 l0.08 -0.12 c0 -0.04 -0.04 -0.04 -0.04 -0.04 c-0.08 0.04 -0.16 0.08 -0.16 0.16 l0 0.04 z M57.39600000000001 37.72 l-0.04 -0.08 c-0.04 -0.08 -0.04 -0.12 -0.12 -0.12 l-0.16 0.08 l-0.08 0.08 l-0.08 -0.08 l-0.08 0.08 l-0.08 -0.04 c0 -0.04 0 -0.08 0.04 -0.12 l0.04 -0.04 l-0.08 0 c-0.04 0 -0.08 0 -0.08 0.04 l0 0.16 l-0.2 -0.2 c-0.08 -0.12 -0.12 -0.16 -0.16 -0.16 l-0.04 0 s-0.04 -0.04 -0.04 -0.12 c-0.04 -0.24 -0.16 -0.44 -0.2 -0.44 s-0.04 0.04 -0.04 0.08 s0 0.08 -0.04 0.08 l-0.16 -0.08 c-0.08 -0.08 -0.12 -0.32 -0.32 -1.12 c-0.04 -0.16 -0.04 -0.8 -0.08 -1.64 c0 -0.76 0 -1.44 -0.04 -1.48 l0 -0.28 c0 -0.12 0 -0.4 -0.04 -0.6 c0 -0.24 0 -0.32 -0.04 -0.32 l-0.2 0.32 c-0.04 0.04 -0.04 0.08 -0.08 0.08 c0 -0.04 0 -0.04 -0.04 -0.04 c-0.04 0.04 -0.04 0.12 -0.04 0.2 s0 0.16 -0.08 0.24 l-0.12 0.24 c0 0.04 -0.04 0.08 -0.2 0.08 l-0.04 0 l0.04 0 l0.08 0.08 l-0.08 0.04 c-0.04 0 -0.12 0.12 -0.2 0.24 c-0.04 0.08 -0.12 0.2 -0.16 0.2 l-0.08 0.12 c0 0.12 -0.2 0.32 -0.28 0.32 l-0.04 0 c-0.04 0 -0.04 0 -0.04 0.04 l0 0.04 l-0.04 0.12 l-0.04 0.2 c0 0.12 -0.12 0.32 -0.28 0.48 c-0.12 0.08 -0.2 0.2 -0.2 0.24 c0 0.08 -0.04 0.08 -0.2 0.08 c-0.04 0 -0.04 0 -0.04 0.04 l0.04 0.08 c0 0.12 -0.28 0.48 -0.44 0.56 c-0.08 0 -0.08 0.04 -0.08 0.08 c0 0.12 -0.6 0.68 -0.72 0.68 l-0.24 0.12 c-0.08 0.08 -0.28 0.16 -0.44 0.2 l-0.52 0.04 c-0.12 0 -0.24 0 -0.24 -0.04 c0 0 0 -0.04 -0.08 -0.04 c-0.32 -0.04 -0.64 -0.08 -0.72 -0.16 c-0.04 -0.04 -0.12 -0.04 -0.12 -0.04 l-0.24 -0.08 c-0.08 -0.08 -0.24 -0.16 -0.32 -0.16 c-0.04 -0.04 -0.08 -0.04 -0.08 -0.08 l0.08 -0.04 l-0.12 -0.08 c-0.04 -0.04 -0.12 -0.04 -0.16 -0.04 l-0.04 0 l0 -0.04 c0 -0.04 -0.04 -0.08 -0.12 -0.08 s-0.2 -0.12 -0.32 -0.2 c-0.12 -0.12 -0.28 -0.24 -0.36 -0.28 c-0.12 -0.04 -0.2 -0.12 -0.24 -0.2 c0 -0.08 -0.08 -0.16 -0.12 -0.2 s-0.08 -0.08 -0.08 -0.12 s-0.04 -0.08 -0.08 -0.12 c-0.4 -0.44 -0.76 -0.92 -0.96 -1.36 c-0.04 -0.08 -0.12 -0.32 -0.24 -0.48 c-0.08 -0.28 -0.16 -0.48 -0.2 -0.92 l-0.04 -0.72 l0.04 -0.36 c0.04 0 0.04 -0.08 0.04 -0.2 c0 -0.16 0.04 -0.28 0.12 -0.36 c0.08 -0.04 0.16 -0.2 0.2 -0.32 c0.04 -0.16 0.08 -0.28 0.16 -0.36 c0.04 -0.04 0.08 -0.12 0.08 -0.2 c0 -0.04 0.04 -0.12 0.08 -0.12 c0.04 -0.04 0.48 -0.68 0.48 -0.72 s0 -0.08 0.04 -0.08 s0.04 0 0.04 -0.08 c0 -0.04 0.04 -0.08 0.08 -0.08 l0.32 -0.4 c0.08 -0.04 0.2 -0.2 0.2 -0.32 l-0.04 -0.08 c0 -0.04 0 -0.04 0.04 -0.04 l0.04 0 l0.08 -0.04 l0.04 -0.04 l-0.04 -0.04 s0 -0.04 0.04 -0.04 c0.08 -0.04 0.16 -0.16 0.24 -0.28 c0.12 -0.12 0.2 -0.28 0.24 -0.28 c0.12 -0.16 0.72 -0.88 0.72 -0.92 l0.12 -0.08 c0.04 0 0.12 -0.08 0.12 -0.16 c0.04 -0.12 0.76 -0.88 1.16 -1.16 l0.92 -0.76 l0.44 -0.24 c0.08 -0.04 0.12 -0.08 0.12 -0.12 l0 -0.08 l0.2 -0.08 c0.28 -0.12 1.08 -0.32 1.4 -0.36 l0.36 -0.04 l0.08 -0.04 c0.04 0 0.04 0.04 0.04 0.08 s0.08 0.12 0.16 0.2 l0.2 0.16 l0.12 0.04 c0.04 0 0.08 0.04 0.08 0.08 c0.04 0.08 0.08 0.16 0.16 0.2 c0.36 0.2 0.68 0.56 0.76 0.76 c0.04 0.16 0.08 0.2 0.16 0.2 c0.04 0 0.08 -0.08 0.08 -0.12 l0 -0.04 l0.04 0 l0 -0.24 l0.04 0 l0.08 -0.04 c0.04 -0.04 0.08 -0.64 0.08 -1 c0 -0.16 0.04 -0.32 0.08 -0.4 s0.08 -0.2 0.08 -0.28 s0 -0.16 0.04 -0.16 s0.08 0.04 0.08 0.08 c0 0.08 0.08 0.12 0.16 0.12 c0.12 0.04 0.24 0.08 0.28 0.12 c0 0.04 0.08 0.08 0.16 0.08 c0.04 0 0.16 0.04 0.28 0.12 c0.08 0.08 0.2 0.16 0.24 0.16 c0.08 0.04 0.12 0.12 0.16 0.2 c0 0.12 0.08 0.16 0.24 0.24 c0.12 0.08 0.24 0.16 0.24 0.24 c0.04 0.08 0.12 0.2 0.2 0.24 c0.08 0.08 0.12 0.16 0.12 0.24 s0.04 0.12 0.08 0.12 l0.08 -0.08 l0.04 0 s0.04 0.04 0.04 0.12 s0 0.2 0.04 0.2 l0.04 0.68 c0 0.56 -0.04 1.2 -0.08 1.28 c-0.04 0.16 -0.08 0.6 -0.08 0.88 c0 0.08 0 0.16 -0.04 0.2 c-0.04 0.12 -0.04 0.28 -0.04 0.76 c-0.04 0.2 -0.04 0.4 -0.08 0.4 s-0.04 0.08 -0.04 0.16 l-0.04 0.2 c-0.04 0 -0.04 0 -0.04 0.04 l0 0.04 c0 0.04 0 0.12 -0.04 0.2 l-0.04 0.12 l0.08 0.12 l-0.08 0.08 l0.08 0.08 l-0.08 0.2 c-0.04 0.08 -0.04 0.24 -0.04 0.32 c0 0.04 -0.04 0.12 -0.08 0.12 s-0.04 0.04 -0.04 0.08 l0.04 0.08 c0.04 0 0.08 0.04 0.08 0.08 l-0.04 0.16 l-0.04 0.24 l0.04 0.04 l-0.04 0.12 c-0.04 0.08 -0.04 0.24 -0.04 0.36 s0 0.2 -0.04 0.2 s-0.04 0 -0.04 0.04 l0 0.04 c0.04 0.04 0.04 0.44 0.04 0.84 l0.04 0.88 l0.08 -0.08 l0.04 0.04 l-0.08 0.12 c-0.08 0.04 -0.08 0.08 -0.08 0.16 c0.04 0.16 0.12 1.08 0.12 1.64 c0 0.2 0 0.36 -0.04 0.36 s-0.08 0.08 -0.08 0.16 l0.04 0.16 c0.08 0.08 0.12 0.24 0.12 0.32 l0 0.08 c-0.04 0 -0.04 0.04 -0.04 0.08 l-0.04 0.24 l-0.08 0.36 c0 0.08 0 0.16 -0.04 0.2 l-0.04 0.16 c0 0.12 0 0.12 -0.12 0.12 l-0.04 0 c-0.04 0 -0.04 0.04 -0.04 0.16 c0 0.08 0 0.12 -0.04 0.12 l-0.08 -0.08 z M53.556000000000004 22.48 l-0.12 0 c-0.04 0 -0.04 -0.04 -0.04 -0.08 c0 0 0 -0.04 0.08 -0.04 c0.04 0 0.08 0 0.08 0.08 l0 0.04 z M53.71600000000001 22.56 l-0.04 -0.04 l0.08 -0.08 l0.08 0.08 z M55.516000000000005 24.560000000000002 l0.04 -0.04 l0.04 -0.16 c-0.04 0 -0.04 0 -0.04 0.04 c-0.04 0.04 -0.08 0.08 -0.08 0.12 z M48.876000000000005 33.76 l0.28 -0.04 c0.12 0 0.28 -0.04 0.32 -0.08 l0.16 -0.08 c0.12 -0.04 0.48 -0.2 0.6 -0.32 l0.32 -0.24 l0.16 -0.16 c0.08 -0.16 0.2 -0.28 0.28 -0.28 s0.52 -0.56 0.52 -0.68 l0 -0.04 l0.08 -0.16 c-0.04 -0.12 -0.04 -0.12 -0.16 -0.12 l-0.2 -0.04 c-0.04 0 -0.04 0.04 -0.04 0.08 c-0.04 0 -0.04 -0.04 -0.04 -0.08 s0.04 -0.08 0.12 -0.12 l0.08 -0.04 l0 -0.16 l0.04 -0.04 c0.08 0 0.16 0.08 0.16 0.12 l-0.08 0 c-0.04 0 -0.08 0.04 -0.08 0.12 l0 0.12 c0.24 -0.2 0.48 -0.32 0.56 -0.68 c0.04 -0.12 0.12 -0.24 0.24 -0.24 c0.08 0 0.12 -0.04 0.12 -0.08 s0 -0.04 0.04 -0.04 l0.08 0 l0 -0.04 c0 -0.08 0.04 -0.12 0.08 -0.12 s0.08 -0.04 0.08 -0.08 l-0.04 -0.12 l0.08 0.04 s0.04 0 0.04 -0.04 s0.04 -0.04 0.08 -0.04 s0.08 -0.04 0.08 -0.08 c0 -0.08 0 -0.08 -0.04 -0.08 l-0.04 0.04 l0 -0.04 c0 -0.04 0 -0.16 0.08 -0.28 c0.04 -0.04 0.08 -0.12 0.08 -0.2 l0 -0.08 l0.2 0 c0.04 0 0.08 0 0.08 -0.04 l0 -0.08 c0 -0.12 0.04 -0.2 0.2 -0.32 c0.12 -0.12 0.16 -0.16 0.16 -0.28 l0 -0.08 c0 -0.2 0.08 -0.4 0.2 -0.4 c0.04 0 0.08 -0.04 0.08 -0.08 c0 -0.08 0.04 -0.12 0.08 -0.12 l0.04 0 s0.04 -0.04 0.04 -0.24 l0 -0.04 l0.04 0 l0.08 -0.12 c0 -0.08 0.04 -0.16 0.08 -0.16 s0.04 -0.04 0.04 -0.08 l-0.04 -0.08 l0.08 -0.04 c0.04 0 0.08 -0.04 0.08 -0.12 l0.04 -0.16 c0.04 0 0.08 -0.04 0.08 -0.08 s0.04 -0.04 0.08 -0.04 l0.04 0 c0.04 0 0.04 -0.04 0.04 -0.2 c0 -0.04 0.04 -0.08 0.12 -0.12 c0.08 0 0.08 -0.04 0.08 -0.12 l0 -0.12 c0.04 0 0.08 -0.08 0.08 -0.12 c0 -0.08 0.04 -0.2 0.12 -0.28 c0.12 -0.16 0.16 -0.28 0.16 -0.4 c0 -0.16 -0.08 -0.24 -0.28 -0.24 l-0.16 0 c-0.36 0.04 -0.92 0.24 -0.92 0.32 c0 0.04 -0.04 0.04 -0.08 0.04 l-0.04 0 c-0.08 0 -0.48 0.24 -0.48 0.28 c0 0.08 -0.12 0.2 -0.32 0.32 l-0.36 0.28 c-0.08 0.12 -0.16 0.16 -0.2 0.16 c0 -0.04 0.04 -0.12 0.12 -0.16 l0.04 -0.12 c-0.04 0 -0.16 0.12 -0.32 0.28 l-0.4 0.32 c-0.12 0.12 -0.52 0.56 -0.52 0.6 c0.04 0 0.24 -0.2 0.48 -0.44 s0.48 -0.4 0.48 -0.4 l0 0.04 c0 0.04 -0.08 0.12 -0.16 0.2 c-0.12 0.08 -0.2 0.2 -0.2 0.2 s-0.16 0.2 -0.36 0.36 l-0.36 0.36 c0 0.04 -0.12 0.16 -0.24 0.32 c-0.16 0.2 -0.28 0.32 -0.28 0.36 l-0.08 0.04 l-0.04 -0.04 c0 -0.08 0.2 -0.32 0.44 -0.6 c0.12 -0.12 0.2 -0.2 0.2 -0.24 c-0.08 0 -0.24 0.16 -0.68 0.68 l-0.16 0.24 l0.12 -0.04 c0 0.08 -0.08 0.16 -0.2 0.36 c-0.28 0.4 -0.4 0.56 -0.4 0.64 l0.04 0.08 l-0.08 -0.04 l-0.2 0.08 l0.04 -0.08 c0 -0.04 0 -0.08 -0.08 -0.08 c-0.04 0 -0.08 0.04 -0.08 0.08 s0 0.08 -0.04 0.08 s-0.16 0.24 -0.16 0.4 l0 0.04 c0 0.04 0 0.04 -0.04 0.04 l-0.08 0 c0 0.04 0 0.08 -0.04 0.08 s-0.04 0 -0.04 0.04 l-0.08 0.24 l-0.08 0.16 l0.08 0.08 l-0.04 0.04 c-0.04 0 -0.04 0.08 -0.04 0.12 s0 0.04 -0.04 0.04 s-0.12 0.08 -0.16 0.2 l-0.12 0.24 c-0.04 0 -0.04 0 -0.04 0.04 l0 0.04 l-0.12 0.32 c-0.12 0.28 -0.16 0.4 -0.16 0.48 l0.04 0.08 l0.04 0.04 l-0.08 0.08 c-0.04 0.04 -0.08 0.08 -0.08 0.12 l0.08 0.56 l0.04 0.12 c0.04 0.04 0.04 0.12 0.04 0.24 c0 0.16 0.04 0.16 0.16 0.16 l0.2 0 z M53.556000000000004 26 l-0.08 0 l-0.04 -0.04 l0 -0.04 z M54.516000000000005 26.48 l0.04 -0.2 l0.08 -0.04 l0 0.04 l-0.08 0.16 z M48.556000000000004 26.72 l0.08 -0.04 c0 -0.04 0 -0.08 -0.04 -0.08 l-0.04 0.08 l0 0.04 z M55.316 26.759999999999998 l0 -0.04 c0 -0.04 0 -0.04 -0.04 -0.04 s-0.04 0 -0.04 0.04 z M54.596000000000004 28.04 c0 0 0.08 -0.04 0.08 -0.08 s0 -0.04 -0.04 -0.04 s-0.08 0.04 -0.12 0.08 c0 0.04 0 0.04 0.04 0.04 l0.04 0 z M55.196000000000005 28.72 l0.04 -0.04 l0 -0.08 c-0.04 0 -0.08 0.04 -0.08 0.08 z M47.836000000000006 28.96 l0.04 -0.08 l-0.04 -0.04 l-0.08 0.08 c0 0.04 0.04 0.04 0.08 0.04 z M50.07600000000001 28.96 l0.08 -0.08 l-0.04 -0.04 l-0.08 0.08 c0 0.04 0.04 0.04 0.04 0.04 z M49.75600000000001 29.4 l0.08 -0.08 c0.04 -0.04 0.08 -0.08 0.08 -0.12 c-0.08 0 -0.2 0.12 -0.2 0.16 z M53.63600000000001 29.32 c0.04 0 0.08 -0.04 0.08 -0.08 l-0.04 0 c-0.04 0.04 -0.08 0.04 -0.08 0.08 l0.04 0 z M55.11600000000001 30 c0.08 0 0.2 -0.2 0.24 -0.32 l0 -0.12 l-0.04 0.08 c-0.04 0.08 -0.08 0.16 -0.12 0.16 c-0.04 0.04 -0.08 0.08 -0.08 0.16 l0 0.04 z M57.516000000000005 29.84 l0.04 -0.04 l0 -0.08 l-0.04 0 s-0.04 0 -0.04 0.04 c0 0.08 0 0.08 0.04 0.08 z M49.556000000000004 29.92 c-0.04 0 -0.04 -0.04 -0.04 -0.08 c0 0 0.04 0 0.04 -0.04 c0.04 0 0.04 0 0.04 0.04 l0.04 0.04 c0 0.04 0 0.04 -0.08 0.04 z M54.916000000000004 30.36 l0.08 -0.12 l-0.04 0 l-0.04 0.08 l0 0.04 z M55.11600000000001 30.72 l0.16 -0.32 c-0.04 0 -0.04 0.04 -0.12 0.08 l-0.08 0.2 z M48.75600000000001 30.8 l0.08 -0.04 c0 -0.04 -0.04 -0.04 -0.08 -0.08 l-0.08 0 l0 0.08 z M55.07600000000001 30.880000000000003 l0.04 -0.08 c-0.04 -0.04 -0.08 -0.08 -0.12 -0.08 l-0.04 0 z M51.516000000000005 31.08 c-0.04 0 -0.04 0 -0.04 -0.04 l0 -0.04 c0 -0.04 0.04 -0.08 0.08 -0.08 s0.04 0 0.04 0.04 s-0.04 0.08 -0.08 0.12 z M54.39600000000001 31.16 l0.08 -0.04 l0.08 -0.16 s0 -0.04 -0.04 -0.04 s-0.04 0.04 -0.04 0.04 l0 0.04 z M55.316 31.240000000000002 c0.04 0 0.08 -0.04 0.08 -0.12 s-0.04 -0.16 -0.08 -0.16 l-0.04 0 c-0.08 0 -0.16 0.04 -0.16 0.12 l0 0.04 l0.12 -0.04 c0.04 0 0.04 0 0.04 0.04 l0 0.08 c0 0.04 0.04 0.04 0.04 0.04 z M48.516000000000005 31.2 c0.04 0 0.08 -0.04 0.08 -0.08 l0 -0.08 s0 0.04 -0.04 0.04 c-0.04 0.04 -0.08 0.08 -0.08 0.12 l0.04 0 z M54.836000000000006 31.439999999999998 l-0.08 -0.12 c0 -0.08 -0.04 -0.08 -0.04 -0.08 l-0.04 0 c0 0.12 0.08 0.2 0.16 0.2 z M54.916000000000004 31.560000000000002 l0.08 -0.04 l0.04 -0.16 c0 -0.04 -0.04 -0.04 -0.04 -0.04 l-0.04 0.08 z M54.676 31.64 l0 -0.08 l-0.08 -0.12 c-0.04 0 -0.08 0 -0.08 0.04 c0 0.12 0.12 0.16 0.16 0.16 z M53.75600000000001 31.68 c0.04 0 0.08 -0.04 0.08 -0.08 l0.04 -0.08 l-0.04 0 c-0.04 0 -0.04 0.04 -0.08 0.08 l-0.04 0.04 z M54.03600000000001 31.72 c0.04 0 0.08 -0.04 0.12 -0.08 l0.04 -0.08 z M54.676 31.96 l0.12 -0.16 l0.04 -0.08 l-0.04 -0.04 l-0.12 0.16 l-0.04 0.08 z M54.39600000000001 31.880000000000003 c0.08 0 0.12 0 0.12 -0.04 l0 -0.04 c0 -0.08 0 -0.08 -0.04 -0.08 l-0.08 0.04 l-0.12 0.08 c0 0.04 0.04 0.04 0.12 0.04 z M51.11600000000001 31.84 c-0.04 0 -0.04 0 -0.04 -0.04 l0.08 -0.04 c0.04 0 0.04 0 0.04 0.04 z M54.316 32.16 l0.04 -0.04 c0.04 -0.04 0.04 -0.08 0.04 -0.12 l-0.04 0 c-0.04 0 -0.04 0 -0.04 0.08 l0 0.08 z M54.196000000000005 32.32 c0.04 0 0.04 0 0.04 -0.04 l-0.04 -0.08 c-0.04 0 -0.04 0 -0.04 0.04 s0 0.08 0.04 0.08 z M54.63600000000001 32.32 c0.04 0 0.04 -0.04 0.04 -0.08 s0 -0.04 -0.04 -0.04 l-0.08 0.08 c0 0.04 0.04 0.04 0.08 0.04 z M54.03600000000001 32.56 l0.04 -0.08 l-0.04 -0.04 c-0.04 0 -0.04 0.04 -0.04 0.04 c0 0.04 0 0.08 0.04 0.08 z M53.916000000000004 32.8 l0.04 -0.04 c0.04 -0.04 0.08 -0.08 0.08 -0.12 l-0.04 0 l-0.08 0.08 l0 -0.08 l-0.04 0 c-0.04 0 -0.04 0.04 -0.04 0.12 z M54.236000000000004 32.88 c0.04 0 0.04 -0.04 0.08 -0.08 l0 -0.04 c-0.04 0 -0.08 0.04 -0.08 0.08 l0 0.04 z M50.35600000000001 33 l-0.08 -0.08 c0 -0.04 0 -0.04 0.04 -0.04 l0.08 0.04 c0 0.04 0 0.08 -0.04 0.08 z M52.75600000000001 34.56 l0.12 -0.04 l0.04 -0.08 s0 -0.04 -0.04 -0.04 s-0.12 0.04 -0.12 0.12 l0 0.04 z M65.04800000000002 36.56 l0 -0.04 c0 -0.04 -0.08 -0.08 -0.12 -0.12 l-0.08 -0.04 l-0.04 0.04 l0.04 0.08 c-0.04 0 -0.08 0 -0.12 -0.04 l-0.16 -0.08 c-0.04 0 -0.08 -0.04 -0.08 -0.08 l-0.04 -0.04 l0 0.08 l-0.08 -0.04 c-0.08 -0.08 -0.16 -0.08 -0.44 -0.12 l-0.08 0 l0 -0.04 c0 -0.04 -0.12 -0.08 -0.24 -0.08 l-0.08 0 c-0.04 0 -0.16 -0.12 -0.28 -0.28 l-0.48 -0.56 c-0.12 -0.12 -0.24 -0.24 -0.24 -0.32 l-0.04 -0.08 c-0.08 -0.04 -0.2 -0.44 -0.24 -0.68 l-0.08 -0.4 c-0.04 -0.2 -0.08 -0.76 -0.08 -1.08 l0 -0.2 l0.04 -0.08 l-0.04 -0.08 c-0.04 -0.08 -0.04 -0.24 -0.04 -0.4 s0 -0.32 0.04 -0.32 s0.08 -0.04 0.08 -0.08 s0 -0.04 -0.04 -0.04 l-0.04 0 c-0.08 0 -0.08 0 -0.08 -0.04 s0 -0.2 -0.04 -0.32 c0 -0.12 0 -0.28 0.04 -0.36 l0 -0.16 c-0.04 -0.04 -0.08 -0.92 -0.08 -2.28 c0 -0.24 0.04 -0.32 0.04 -0.32 l0.08 0 l-0.04 -0.08 c-0.04 -0.08 -0.04 -0.16 -0.04 -0.24 c0 -0.16 0.04 -0.28 0.08 -0.28 l0.08 0 l0.04 -0.08 c0 -0.08 0 -0.08 -0.04 -0.08 l-0.08 0.08 l-0.04 -0.08 c0 -0.08 0 -0.12 0.08 -0.16 l0.04 -0.08 l-0.04 -0.04 l0 -0.08 l-0.04 0.04 c-0.08 0 -0.12 0 -0.12 -0.04 s0.08 -0.04 0.2 -0.04 l0.04 -0.16 c0 -0.08 -0.04 -0.12 -0.04 -0.12 l-0.12 0 c0 -0.04 0.04 -0.12 0.12 -0.2 l0.12 -0.12 l-0.24 0.12 c-0.04 0 -0.04 -0.04 -0.04 -0.04 l0 -0.04 c0.04 -0.04 0.04 -0.08 0.04 -0.12 l0.08 -0.2 l0.04 -0.16 l-0.04 -0.08 l-0.04 0.04 c-0.04 0 -0.04 -0.04 -0.04 -0.08 c0 -0.08 0 -0.12 0.04 -0.16 l0.04 -0.04 l-0.04 -0.04 l-0.04 -0.16 c0 -0.24 0.08 -0.6 0.2 -0.6 l0.04 0 l0 -0.04 c0 -0.04 0 -0.04 -0.04 -0.04 l-0.16 0.08 l-0.04 0.04 l0.04 -0.2 l0 -0.12 l0.04 0.04 l0.08 0.04 c0.04 0 0.08 0 0.08 -0.04 c0 0 0 -0.04 -0.08 -0.08 c-0.04 0 -0.04 -0.08 -0.04 -0.12 c0.04 -0.04 0.04 -0.08 0.08 -0.08 l0.08 -0.04 l0 -0.12 l0.08 -0.16 l-0.04 -0.04 c-0.08 0 -0.08 0.08 -0.08 0.2 l0 0.04 l-0.04 0 c-0.04 0 -0.08 -0.08 -0.08 -0.12 c0.04 -0.08 0.04 -0.28 0.04 -0.4 l0.08 -0.64 c0 -0.56 0.04 -0.68 0.12 -0.76 s0.08 -0.12 0.08 -0.16 s0 -0.04 -0.04 -0.04 l-0.04 0.04 l0.04 0.04 l-0.04 0.08 l-0.04 0 c-0.04 0 -0.04 -0.04 -0.04 -0.08 l0.08 -0.28 l-0.04 -0.16 c0 -0.12 0.08 -0.28 0.16 -0.32 c0.04 0 0.08 -0.04 0.08 -0.08 l-0.04 0 c-0.04 0 -0.08 -0.04 -0.08 -0.08 l0 -0.08 c0 -0.16 0.08 -0.52 0.16 -0.52 c0 0 0.04 0 0.04 -0.08 c0 -0.04 -0.04 -0.04 -0.12 -0.04 l-0.04 0 l0 -0.16 c0.04 -0.12 0.04 -0.24 0.04 -0.32 c0 -0.04 0.04 -0.08 0.12 -0.08 s0.08 -0.04 0.08 -0.16 s0 -0.16 -0.08 -0.16 c-0.04 0 -0.08 -0.04 -0.08 -0.08 l0.04 -0.12 c0.04 -0.08 0.08 -0.44 0.08 -1.08 c0 -0.12 0 -0.24 0.04 -0.28 l0.04 -0.44 c0 -0.24 0.04 -0.56 0.08 -0.68 c0.04 -0.16 0.04 -0.4 0.04 -0.52 c0 -0.44 0.04 -0.72 0.08 -0.8 l0.04 -0.16 l-0.08 -0.76 l0 -0.32 c0.04 0 0.08 -0.04 0.08 -0.12 c0.04 -0.08 0.04 -0.08 0.16 -0.08 l0.2 0 c0.28 0 0.48 0.08 0.84 0.32 l0.16 0.12 c0.04 0 0.08 0 0.12 0.08 c0 0.04 0.12 0.08 0.2 0.08 c0.16 0.04 0.28 0.12 0.48 0.36 c0.16 0.12 0.28 0.28 0.28 0.32 s0.08 0.08 0.16 0.12 c0.12 0.08 0.16 0.08 0.2 0.48 c0 0.24 0 0.56 -0.04 0.68 c0 0.12 -0.08 0.52 -0.08 0.88 c-0.04 0.36 -0.08 0.76 -0.12 0.88 s-0.08 0.44 -0.08 0.64 c-0.04 0.24 -0.04 0.44 -0.08 0.44 l-0.04 0 l0.04 -0.04 c0 -0.04 0 -0.12 -0.04 -0.12 l-0.04 -0.04 c-0.04 0 -0.12 0.16 -0.12 0.24 l0 0.08 l0.08 -0.12 l0 0.08 c0 0.16 0 0.24 0.04 0.24 l0.04 -0.08 l0 0.16 c0 0.24 0 0.8 -0.04 0.96 c-0.04 0.04 -0.04 0.2 -0.04 0.32 s0 0.2 -0.04 0.2 l-0.04 -0.08 l-0.04 0.04 l0 0.12 c0.04 0 0.08 0.08 0.08 0.16 l0 0.08 l-0.12 -0.04 l-0.08 0.04 l-0.04 0.12 c0.04 0 0.08 0.12 0.08 0.24 s0 0.16 0.04 0.16 l0.04 -0.08 c0.04 0 0.04 0.04 0.04 0.12 s-0.04 0.2 -0.08 0.28 l-0.04 0.08 l0.08 0 c0.04 0 0.04 0 0.04 0.04 c0 0.08 -0.04 0.08 -0.08 0.08 l-0.08 0 c0 0.04 0 0.08 0.04 0.08 c0.04 0.04 0.04 0.12 0.04 0.2 c-0.04 0.08 -0.04 0.24 -0.04 0.32 l0 0.12 l-0.08 -0.04 c-0.04 -0.04 -0.08 -0.08 -0.12 -0.08 l0.04 0.08 c0.04 0.04 0.04 0.12 0.04 0.24 c0 0.2 -0.04 0.4 -0.08 0.4 l0.08 0.08 l0.12 0.04 c0.04 0 0.08 -0.04 0.16 -0.12 s0.2 -0.12 0.24 -0.12 s0.12 -0.04 0.2 -0.12 s0.08 -0.08 0.08 -0.12 l-0.16 0.08 l-0.04 -0.04 l0.12 -0.12 c0.08 -0.04 0.12 -0.08 0.12 -0.12 c0 -0.08 0.52 -0.44 0.6 -0.44 l0.2 -0.12 c0.08 -0.08 0.16 -0.16 0.2 -0.16 l0.16 -0.08 c0.04 -0.04 0.08 -0.04 0.12 -0.04 s0.04 0 0.04 -0.04 s0.04 -0.04 0.08 -0.04 l0.04 0 c0.08 0 0.2 -0.12 0.2 -0.2 l0.04 -0.04 l0.04 0 c0.08 0 0.12 0 0.16 -0.04 l0.04 -0.08 l0.16 0.08 c0.04 0 0.08 0 0.08 -0.04 c0.04 -0.04 0.08 -0.04 0.12 -0.04 l0.04 0 l0.16 -0.08 c0.08 -0.08 0.16 -0.08 0.24 -0.08 s0.12 0 0.2 0.04 l0.08 0.04 l0.04 -0.04 l0.12 0 c0.28 0 1.04 0.04 1.28 0.12 c0.32 0.12 2.08 1 2.08 1.08 c0 0.04 0.2 0.2 0.4 0.36 l0.2 0.24 l0.6 0.56 c0 0.04 0.08 0.2 0.2 0.32 c0.12 0.16 0.2 0.32 0.2 0.36 l0.08 0.04 l0.04 0 l-0.04 0.04 c-0.04 0.04 -0.04 0.12 -0.04 0.16 l0 0.04 c0 0.04 -0.04 0.08 -0.08 0.08 l-0.08 -0.08 l-0.04 0.04 c0 0.04 0 0.08 0.04 0.08 l0.04 0.24 l0 0.2 c0 0.12 0.04 0.16 0.12 0.2 s0.16 0.08 0.16 0.2 l-0.04 0.12 l0 0.44 c0 0.12 -0.04 0.12 -0.12 0.2 l-0.24 0.04 l0 0.04 l0.08 0.2 c0.04 0.04 0.08 0.12 0.08 0.2 c0 0.12 -0.04 0.24 -0.12 0.28 l-0.04 0 l0.08 -0.08 c0 -0.04 -0.04 0 -0.08 0.04 s-0.12 0.04 -0.16 0.04 s-0.04 0.04 -0.08 0.08 l0 0.08 l0.04 -0.04 l0.2 -0.04 c0.04 0 0.08 0 0.08 0.04 c0 0.08 -0.16 0.32 -0.2 0.32 c0 0 -0.04 0.04 -0.04 0.12 c0 0.04 0 0.08 -0.04 0.08 s-0.04 0 -0.04 -0.08 c0 -0.04 -0.04 -0.08 -0.08 -0.08 s-0.04 0 -0.04 0.04 l0.08 0.16 c0.04 0.04 0.08 0.08 0.08 0.12 l-0.08 0 c-0.04 0 -0.08 0.08 -0.08 0.16 c0 0.16 -0.12 0.4 -0.2 0.4 s-0.36 0.36 -0.36 0.48 l0 0.04 c0 0.04 0 0.04 -0.04 0.04 l-0.08 0 l0 0.12 c0 0.12 -0.24 0.52 -0.36 0.56 c-0.04 0.04 -0.08 0.08 -0.08 0.12 l0 0.04 l-0.16 0.28 c0 0.08 -0.16 0.2 -0.24 0.2 c0 0 -0.04 0 -0.04 0.04 s-0.04 0.08 -0.16 0.12 c-0.08 0 -0.12 0 -0.12 -0.04 l0.04 -0.04 l0 -0.08 l-0.36 0.4 l0 -0.04 l-0.08 -0.08 c-0.04 0 -0.08 0.04 -0.08 0.08 l0.24 0.12 l0 0.04 l-0.16 0 l-0.08 -0.04 l-0.04 0.04 c0 0.04 0.04 0.08 0.08 0.08 s0.08 0.04 0.08 0.08 l-0.04 0.04 c-0.08 0 -0.12 0 -0.12 0.04 l0.04 0.04 l0 0.08 c0 0.12 -0.12 0.36 -0.2 0.36 c-0.04 0 -0.04 0.08 -0.04 0.12 l-0.08 0.16 l-0.04 -0.04 c0 -0.04 -0.04 -0.08 -0.08 -0.08 c-0.08 0 -0.16 0.16 -0.16 0.24 l0 0.08 s0 0.04 -0.04 0.04 c-0.04 0.04 -0.08 0.08 -0.08 0.16 l-0.04 0.08 c-0.04 0 -0.08 0.08 -0.12 0.16 s-0.16 0.16 -0.24 0.24 s-0.16 0.16 -0.16 0.2 c0 0.08 -0.08 0.2 -0.2 0.32 l-0.24 0.2 l0 -0.16 l-0.16 0.08 l-0.04 0.12 l0 0.08 c0 0.08 0 0.08 -0.08 0.08 l-0.04 0 c-0.08 0 -0.08 0.04 -0.16 0.12 c-0.04 0.08 -0.12 0.16 -0.16 0.16 l0 -0.12 l-0.08 0.04 c-0.04 0.04 -0.12 0.08 -0.12 0.12 l-0.08 0 c-0.04 0 -0.04 0.04 -0.04 0.04 c0 0.04 0 0.08 0.04 0.08 l0.04 0.04 l-0.16 0 c-0.04 0 -0.12 0.04 -0.2 0.12 l-0.16 0.12 c0 -0.04 -0.04 -0.08 -0.08 -0.08 s-0.08 0.04 -0.08 0.08 s-0.08 0.04 -0.12 0.04 l-0.08 0 l0.04 0.08 c0.04 0.04 0.08 0.08 0.08 0.16 s-0.08 0.2 -0.2 0.24 c-0.08 0.08 -0.16 0.12 -0.16 0.16 s-0.04 0.04 -0.12 0.04 l-0.12 -0.12 l-0.12 0.04 c-0.04 0.04 -0.12 0.08 -0.12 0.12 l-0.16 0.04 c-0.08 0 -0.2 0.04 -0.24 0.08 c-0.04 0.08 -0.12 0.12 -0.16 0.12 l0 -0.04 c0 -0.04 -0.08 -0.08 -0.2 -0.08 l-0.28 0.08 c-0.08 0 -0.12 0.04 -0.12 0.04 c0 0.04 -0.12 0.04 -0.24 0.04 c-0.16 0 -0.2 0.04 -0.2 0.08 l0 0.08 l-0.04 -0.04 c-0.04 -0.04 -0.08 -0.04 -0.12 -0.04 s-0.08 0 -0.08 -0.04 l-0.08 -0.04 l0.16 0.36 z M63.08800000000001 15.96 l0.04 -0.08 l-0.04 -0.04 l0 0.12 z M65.56800000000001 15.96 c0.04 0 0.04 0 0.04 -0.04 s0 -0.04 -0.04 -0.04 s-0.04 0 -0.04 0.04 s0 0.04 0.04 0.04 z M65.56800000000001 16.36 c0.04 0 0.04 -0.08 0.04 -0.2 l0 -0.12 l-0.04 0.04 c-0.04 0.04 -0.04 0.12 -0.04 0.2 c0 0.04 0 0.08 0.04 0.08 z M63.08800000000001 16.28 l0.04 -0.08 l0 -0.08 c-0.04 0 -0.08 0.04 -0.08 0.08 z M63.04800000000001 16.56 l0 -0.12 l-0.04 0 l0 0.08 z M65.608 16.72 l0 -0.08 c0 -0.04 0 -0.04 -0.04 -0.04 s-0.04 0.04 -0.04 0.08 z M65.528 17.56 c0.04 0 0.04 -0.04 0.04 -0.12 l0 -0.08 s-0.04 0 -0.04 0.04 l-0.04 0.12 c0 0.04 0 0.04 0.04 0.04 z M65.44800000000001 18.76 l0 -0.08 c0 -0.08 0 -0.2 -0.04 -0.24 l-0.04 0 l0 0.12 c0 0.04 0 0.08 -0.04 0.08 l0.04 0.08 z M62.808000000000014 18.6 l0.04 -0.08 s0 -0.04 -0.04 -0.04 l-0.04 0.04 c0 0.04 0 0.08 0.04 0.08 z M62.76800000000001 19.04 l0.04 -0.04 l0 -0.08 l-0.08 0.08 c0 0.04 0 0.04 0.04 0.04 z M65.36800000000001 19.04 c0.04 0 0.04 0 0.04 -0.04 c0 -0.08 -0.04 -0.08 -0.04 -0.08 l-0.04 0.08 z M62.68800000000001 19.68 l-0.04 0 l0 -0.12 l0.04 0.04 l0 0.08 z M62.64800000000001 20.08 l0.16 -0.2 l-0.08 0.04 c-0.04 0.04 -0.08 0.08 -0.08 0.12 l0 0.04 z M62.56800000000001 21 l0 -0.12 c0 -0.04 0 -0.12 -0.04 -0.12 l0 0.12 z M64.96800000000002 22.04 c0.04 0 0.04 -0.04 0.04 -0.12 l0 -0.08 l-0.08 0.16 z M62.36800000000001 22.72 l0.08 -0.08 l-0.08 -0.08 l-0.04 0 l0 0.16 l0.04 0 z M64.92800000000001 22.88 l0 -0.16 l-0.04 0 l0 0.16 l0.04 0 z M62.32800000000001 23.16 l0.04 -0.04 c0 -0.08 0 -0.16 -0.04 -0.16 l-0.04 -0.04 z M62.32800000000001 23.56 c0.04 -0.04 0.04 -0.08 0.04 -0.12 c0 0 0 -0.04 -0.04 -0.04 l-0.04 0.16 l0.04 0 z M65.12800000000001 33.6 l0 -0.04 l0.04 -0.08 c0.04 -0.04 0.12 -0.04 0.16 -0.04 c0.2 0 0.52 -0.2 0.52 -0.28 c0 -0.04 0 -0.08 0.04 -0.08 s0.04 0.04 0.04 0.08 l0.08 0.04 c0.12 0 0.4 -0.2 0.4 -0.28 l0 -0.04 c0 -0.2 0.4 -0.6 0.56 -0.6 c0.08 0 0.16 -0.04 0.28 -0.12 c0.08 -0.04 0.16 -0.12 0.2 -0.12 c0 0 0 -0.04 -0.04 -0.04 l-0.16 0.04 l-0.12 0.08 l-0.04 -0.04 l0.04 -0.12 l0 -0.16 l0.04 0.04 c0.04 0 0.12 0 0.16 -0.04 l0.08 -0.04 l0.04 0.08 c0 0.04 0 0.08 0.04 0.08 s0.16 -0.24 0.16 -0.36 l0 -0.04 l0.08 -0.08 c0.16 -0.04 0.28 -0.2 0.28 -0.28 l-0.04 -0.04 l-0.12 0.04 l-0.08 0.16 c0 0.04 -0.16 0.16 -0.2 0.16 s-0.08 0 -0.08 -0.04 l0.2 -0.24 c0.12 -0.12 0.16 -0.2 0.24 -0.2 l0.08 0.04 l0.16 0.04 c0.04 0 0.12 -0.04 0.12 -0.08 l0.08 -0.04 c0.04 0 0.08 -0.04 0.08 -0.12 l0 -0.08 l-0.08 0.08 l-0.08 0.04 l0 -0.04 c0 -0.16 0.08 -0.24 0.16 -0.24 s0.12 -0.04 0.12 -0.08 l0.04 -0.04 l0.12 0.08 c0.04 0 0.04 -0.04 0.04 -0.12 s0.04 -0.2 0.08 -0.24 s0.08 -0.08 0.08 -0.16 c0 -0.04 0.04 -0.08 0.08 -0.08 s0.04 0 0.04 -0.04 c0 -0.08 0.16 -0.16 0.32 -0.16 l0.08 0 c0.08 0 0.12 -0.08 0.2 -0.2 l0.12 -0.24 c-0.04 0 -0.08 0.04 -0.12 0.12 s-0.08 0.12 -0.12 0.12 s-0.04 0 -0.04 -0.04 l0 -0.08 c0.04 -0.04 0.04 -0.12 0.04 -0.16 s0.04 -0.04 0.12 -0.04 c0.2 -0.04 0.4 -0.12 0.56 -0.32 l0.08 -0.2 l0 -0.04 l-0.04 0 c-0.04 0 -0.16 0.08 -0.2 0.2 c0 0.08 -0.04 0.12 -0.08 0.12 l-0.08 0.04 l-0.04 0.04 l-0.12 -0.08 l0.12 -0.12 c0 -0.04 0.04 -0.12 0.12 -0.2 c0.08 -0.04 0.12 -0.12 0.12 -0.16 s0.04 -0.08 0.08 -0.08 l0.08 -0.08 c0.04 -0.12 0.12 -0.28 0.24 -0.4 l0.04 -0.04 l-0.04 -0.08 l0.16 0.04 l0.08 0.08 l-0.08 -0.16 l-0.08 -0.12 c0 -0.08 0.08 -0.16 0.2 -0.2 c0.08 -0.04 0.16 -0.08 0.16 -0.12 l-0.16 -0.08 c0 -0.04 0.04 -0.08 0.08 -0.08 s0.04 -0.04 0.04 -0.08 l0 -0.16 c0.04 0 0.2 -0.32 0.2 -0.36 c0 -0.08 0.16 -0.32 0.2 -0.32 s0.04 -0.04 0.04 -0.08 l0 -0.04 l-0.04 0.04 c-0.04 0 -0.04 -0.04 -0.04 -0.08 c0 -0.08 0 -0.12 0.04 -0.16 c0.04 0 0.04 -0.12 0.04 -0.2 c0 -0.12 0.04 -0.24 0.08 -0.28 l0.04 -0.08 l-0.04 -0.04 c-0.04 -0.04 -0.04 -0.12 -0.04 -0.16 c0.04 -0.04 0.04 -0.12 0.04 -0.2 c-0.04 -0.08 -0.04 -0.16 -0.04 -0.2 l-0.04 -0.28 c-0.04 -0.2 -0.08 -0.24 -0.2 -0.24 c-0.2 0 -0.4 -0.04 -0.56 -0.08 c-0.08 0 -0.2 0 -0.28 0.04 l-0.16 0.04 l-0.04 -0.08 l0.04 0 l0 -0.04 l-0.08 -0.04 l-0.12 0 l-0.08 0.04 l-0.2 0.04 c-0.08 0 -0.2 0.04 -0.24 0.08 s-0.16 0.08 -0.28 0.12 c-0.08 0.04 -0.12 0.04 -0.12 0.08 l0.04 0.12 l-0.16 0.08 l-0.04 0 c-0.04 0 -0.04 0 -0.04 -0.04 l0 -0.08 l-0.12 0.04 c-0.16 0.08 -0.24 0.12 -0.24 0.2 l0 0.04 l-0.16 0.08 c0 0.04 0 0.04 -0.04 0.04 s-0.04 0 -0.04 0.08 l0.04 0.04 l-0.04 0 s-0.12 0.04 -0.2 0.16 c-0.08 0.08 -0.16 0.12 -0.2 0.12 l-0.08 -0.08 l-0.16 0.12 l-0.12 0.2 l0.04 0 c0.04 0 0.04 0 0.04 0.04 s0 0.08 -0.08 0.12 c-0.04 0 -0.04 0.08 -0.04 0.12 l0.04 0.04 l-0.04 0 s-0.08 0 -0.12 0.08 l-0.08 0.04 l-0.04 -0.04 c0 -0.04 0 -0.08 -0.04 -0.08 c0 0 -0.04 0.08 -0.04 0.2 l0 0.12 c-0.04 0 -0.12 0.04 -0.2 0.12 l-0.04 0.12 c0 0.04 0 0.04 0.04 0.04 l0.08 -0.04 l-0.12 0.24 c-0.08 0.08 -0.16 0.12 -0.2 0.12 c-0.08 0 -0.48 0.68 -0.48 0.8 l-0.12 0.24 c0 0.04 0.04 0.04 0.08 0.08 l0.08 0.08 l-0.08 0.12 c-0.04 0.16 -0.08 0.2 -0.12 0.2 l0.04 -0.2 l-0.04 0 s-0.08 0.12 -0.12 0.28 c-0.08 0.2 -0.12 0.44 -0.12 0.56 l0.04 0.08 l0.08 -0.16 l0 0.08 c0 0.08 -0.04 0.16 -0.12 0.2 l-0.08 0.2 c0 0.08 -0.04 0.12 -0.08 0.12 s-0.08 0.12 -0.08 0.28 s0 0.32 -0.04 0.32 l-0.04 -0.04 c0 -0.04 -0.08 -0.08 -0.16 -0.08 l-0.12 0 c-0.04 0 -0.08 0.04 -0.08 0.08 s-0.04 0.08 -0.08 0.08 l-0.04 0 c-0.12 0 -0.16 0.08 -0.16 0.24 l-0.04 0.16 l0.08 0 l-0.08 0.44 c0 0.16 0.04 0.32 0.08 0.36 l-0.04 0.32 s0.04 0.32 0.04 0.72 c0 0.48 0 0.64 -0.04 0.64 l-0.08 -0.04 c-0.04 0 -0.08 0.04 -0.08 0.12 s0.04 0.08 0.12 0.08 l0.08 0 c0.04 0 0.08 0.04 0.08 0.28 c0 0.08 0 0.12 0.04 0.12 l0.04 0 l0.04 -0.08 l0.04 0.08 l0.04 0 z M65.20800000000001 24.32 l0.08 -0.04 l0.04 -0.08 c0 -0.04 -0.04 -0.04 -0.04 -0.04 c-0.04 0 -0.08 0.04 -0.08 0.12 l0 0.04 z M69.24800000000002 24.52 l-0.04 -0.04 l0.04 -0.04 c0.04 -0.04 0.56 -0.2 0.68 -0.2 c0 0.04 -0.32 0.16 -0.48 0.2 c-0.04 0 -0.12 0 -0.12 0.04 z M62.16800000000001 25.36 l0.04 -0.04 l-0.04 -0.08 l-0.04 0 l-0.04 0.04 c0 0.04 0.04 0.08 0.08 0.08 z M67.68800000000002 25.560000000000002 c-0.08 0 -0.08 0 -0.08 -0.08 c0 -0.04 0.04 -0.08 0.08 -0.12 l0.04 0 l0.04 0.08 z M62.20800000000001 25.6 l0 -0.08 l-0.04 -0.04 l0 0.12 l0.04 0 z M74.04800000000002 26 c-0.04 0 -0.04 -0.04 -0.04 -0.08 l0 -0.04 c0 -0.04 0 -0.04 -0.04 -0.04 s-0.04 -0.08 -0.04 -0.12 c0 -0.08 0 -0.12 0.04 -0.12 l0.04 0 l0.04 0.04 l-0.04 0.04 c0 0.08 0 0.12 0.04 0.12 s0.08 0.04 0.08 0.08 c0 0.08 -0.04 0.12 -0.08 0.12 z M66.48800000000001 26.04 c0.04 0 0.12 0 0.12 -0.04 s0 -0.04 -0.04 -0.04 c-0.08 0.04 -0.12 0.04 -0.12 0.08 l0.04 0 z M66.248 26.52 l0 -0.08 l0.08 -0.04 l-0.08 -0.04 c-0.04 0 -0.08 0.04 -0.08 0.08 z M73.808 27 l0.16 -0.32 l-0.04 -0.08 c0 -0.08 -0.04 -0.08 -0.08 -0.08 s-0.08 0.08 -0.08 0.24 c0 0.12 0 0.24 0.04 0.24 z M65.84800000000001 27.240000000000002 c0.04 0 0.12 -0.12 0.2 -0.24 l0 -0.12 l-0.08 0.04 c-0.04 0.04 -0.04 0.08 -0.04 0.12 c0 0 0 0.04 -0.04 0.04 c-0.04 0.04 -0.04 0.08 -0.04 0.12 l0 0.04 z M73.888 27.32 l0 -0.08 c0 -0.08 0.04 -0.16 0.08 -0.16 s0.04 0 0.04 0.04 l-0.04 0.16 z M66.08800000000001 27.32 c0 0 0.04 0 0.04 -0.04 l0 -0.04 c-0.04 0 -0.08 0 -0.08 0.04 s0 0.04 0.04 0.04 z M73.608 27.439999999999998 l0.12 -0.04 c0 -0.04 0 -0.08 -0.04 -0.08 s-0.08 0.04 -0.08 0.08 l0 0.04 z M66.248 27.8 c-0.04 0 -0.04 0 -0.04 -0.08 l0.04 -0.08 c0.04 0 0.08 -0.04 0.08 -0.08 s0 -0.08 0.04 -0.08 l0.04 0.04 l-0.04 0.12 c-0.04 0.12 -0.08 0.16 -0.12 0.16 z M73.608 27.72 l0.04 -0.08 l0 -0.04 l-0.08 0.04 c0 0.04 0 0.08 0.04 0.08 z M70.56800000000001 28.08 l0.08 -0.04 c0 -0.04 0 -0.08 -0.04 -0.08 l-0.04 0.08 l0 0.04 z M62.08800000000001 28.4 l0 -0.08 l0.12 -0.16 l-0.04 -0.04 c-0.08 0 -0.16 0.12 -0.16 0.2 l0 0.04 z M70.328 28.6 l0.08 -0.16 c0.08 -0.08 0.12 -0.2 0.16 -0.2 l0.04 -0.04 l-0.04 0 c-0.12 0 -0.24 0.24 -0.24 0.36 l0 0.04 z M65.96800000000002 28.6 c-0.04 0 -0.04 0 -0.04 -0.04 s0.04 -0.04 0.08 -0.08 l0.04 0 z M73.00800000000001 28.72 l0.08 -0.04 l-0.04 -0.08 c-0.04 0 -0.04 0.04 -0.04 0.08 l0 0.04 z M62.08800000000001 28.880000000000003 c0.04 0 0.08 -0.04 0.08 -0.08 l-0.08 -0.12 l-0.04 0.08 c0 0.08 0.04 0.12 0.04 0.12 z M65.888 28.880000000000003 c-0.04 0 -0.04 -0.04 -0.04 -0.04 c0 -0.04 0 -0.08 0.04 -0.08 l0.04 0 l0 0.04 c0 0.04 0 0.08 -0.04 0.08 z M62.08800000000001 29.36 c0.04 0 0.08 -0.04 0.08 -0.12 c0 -0.04 0 -0.08 -0.04 -0.08 l-0.08 0.16 z M62.08800000000001 29.72 c0.04 0 0.08 0 0.08 -0.04 l0.04 -0.04 l-0.04 0 c-0.04 0 -0.08 0 -0.08 0.04 l-0.04 0.04 l0.04 0 z M72.00800000000001 30.48 l0.08 -0.04 l0 -0.04 c0 -0.04 0 -0.04 -0.04 -0.04 s-0.08 0.04 -0.08 0.08 z M64.56800000000001 30.84 l0.04 -0.04 l0 -0.12 l-0.04 0 l0 0.16 z M68.00800000000001 30.92 l-0.04 -0.08 c0 -0.08 0.04 -0.12 0.12 -0.16 l0.04 0.04 c0 0.04 -0.04 0.2 -0.12 0.2 z M71.96800000000002 30.84 l-0.04 -0.04 c0 -0.04 -0.04 -0.04 -0.08 -0.04 l0 0.04 c0 0.04 0.04 0.04 0.08 0.04 l0.04 0 z M64.64800000000001 31.04 l0.08 -0.16 l-0.08 0 l-0.04 0.08 l0 0.04 c0 0.04 0 0.04 0.04 0.04 z M63.88800000000001 31.16 l0.04 -0.04 l-0.04 -0.08 l0 0.12 z M70.608 31.759999999999998 l0.04 -0.04 c0.04 -0.04 0.04 -0.12 0.04 -0.16 c-0.04 0 -0.04 0.04 -0.04 0.04 c-0.04 0.04 -0.04 0.12 -0.04 0.12 l0 0.04 z M67.64800000000001 31.880000000000003 c0.04 0 0.2 -0.04 0.24 -0.08 l0 -0.04 l-0.12 0 c-0.08 0.04 -0.16 0.08 -0.16 0.12 l0.04 0 z M64.72800000000001 32.36 l0.04 -0.04 l-0.04 0 c-0.04 0 -0.08 -0.08 -0.08 -0.16 l0 -0.12 l-0.04 0 l-0.04 0.08 c0 0.12 0.08 0.24 0.16 0.24 z M69.68800000000002 32.44 l0.08 -0.04 c0 -0.04 0 -0.04 -0.04 -0.04 s-0.04 0 -0.04 0.04 l0 0.04 z M64.64800000000001 32.8 l0 -0.2 l-0.04 0.08 c0 0.08 0.04 0.12 0.04 0.12 z M66.56800000000001 32.72 l0.08 -0.04 c0 -0.04 -0.04 -0.08 -0.08 -0.08 l-0.04 0.08 z M70.168 32.72 l0.08 -0.04 c0 -0.04 0 -0.08 -0.04 -0.08 l-0.04 0.08 l0 0.04 z M69.92800000000001 33.24 c0.04 0 0.08 0 0.08 -0.04 l-0.04 -0.04 l-0.12 0.04 c0 0.04 0.04 0.04 0.08 0.04 z M68.608 33.56 c0.04 0 0.04 0 0.04 -0.04 l0 -0.04 l-0.08 0.04 c0 0.04 0 0.04 0.04 0.04 z M69.48800000000001 33.84 c0.04 0 0.08 -0.04 0.12 -0.08 l0 -0.04 l-0.08 0 c-0.04 0 -0.08 0.04 -0.08 0.08 s0 0.04 0.04 0.04 z M68.96800000000002 34.08 l0.16 -0.12 l-0.08 -0.04 c-0.04 0 -0.08 0 -0.08 0.04 l-0.04 0.08 z M68.76800000000001 34.04 c0.04 0 0.08 0 0.08 -0.04 l0 -0.04 c-0.04 0 -0.08 0 -0.12 0.04 c0 0.04 0 0.04 0.04 0.04 z M68.608 34.16 c0.04 0 0.04 0 0.04 -0.04 s0 -0.04 -0.04 -0.04 c-0.08 0 -0.08 0 -0.08 0.04 z M68.888 34.6 l0.04 -0.08 c0 -0.04 0.04 -0.08 0.08 -0.08 l-0.04 0.08 c0 0.04 -0.04 0.08 -0.08 0.08 z M67.44800000000001 35.519999999999996 c0.08 0 0.12 -0.04 0.12 -0.12 c0 -0.04 0 -0.08 -0.08 -0.08 l-0.16 0.04 l0 0.04 c0 0.04 -0.04 0.04 -0.04 0.04 l-0.04 0 l0.04 0.04 z M66.96800000000002 35.92 l0 -0.04 c0 -0.04 0 -0.08 0.04 -0.08 l0.04 0 c0 0.04 0 0.08 -0.04 0.08 z M65.68800000000002 35.88 l0.04 -0.04 l-0.04 -0.04 l-0.08 0 c0 0.04 0.04 0.08 0.08 0.08 z M86.06000000000002 37.72 l-0.04 -0.08 c-0.04 -0.08 -0.04 -0.12 -0.12 -0.12 l-0.16 0.08 l-0.08 0.08 l-0.08 -0.08 l-0.08 0.08 l-0.08 -0.04 c0 -0.04 0 -0.08 0.04 -0.12 l0.04 -0.04 l-0.08 0 c-0.04 0 -0.08 0 -0.08 0.04 l0 0.16 l-0.2 -0.2 c-0.08 -0.12 -0.12 -0.16 -0.16 -0.16 l-0.04 0 s-0.04 -0.04 -0.04 -0.12 c-0.04 -0.24 -0.16 -0.44 -0.2 -0.44 s-0.04 0.04 -0.04 0.08 s0 0.08 -0.04 0.08 l-0.16 -0.08 c-0.08 -0.08 -0.12 -0.32 -0.32 -1.12 c-0.04 -0.16 -0.04 -0.8 -0.08 -1.64 c0 -0.76 0 -1.44 -0.04 -1.48 l0 -0.28 c0 -0.12 0 -0.4 -0.04 -0.6 c0 -0.24 0 -0.32 -0.04 -0.32 l-0.2 0.32 c-0.04 0.04 -0.04 0.08 -0.08 0.08 c0 -0.04 0 -0.04 -0.04 -0.04 c-0.04 0.04 -0.04 0.12 -0.04 0.2 s0 0.16 -0.08 0.24 l-0.12 0.24 c0 0.04 -0.04 0.08 -0.2 0.08 l-0.04 0 l0.04 0 l0.08 0.08 l-0.08 0.04 c-0.04 0 -0.12 0.12 -0.2 0.24 c-0.04 0.08 -0.12 0.2 -0.16 0.2 l-0.08 0.12 c0 0.12 -0.2 0.32 -0.28 0.32 l-0.04 0 c-0.04 0 -0.04 0 -0.04 0.04 l0 0.04 l-0.04 0.12 l-0.04 0.2 c0 0.12 -0.12 0.32 -0.28 0.48 c-0.12 0.08 -0.2 0.2 -0.2 0.24 c0 0.08 -0.04 0.08 -0.2 0.08 c-0.04 0 -0.04 0 -0.04 0.04 l0.04 0.08 c0 0.12 -0.28 0.48 -0.44 0.56 c-0.08 0 -0.08 0.04 -0.08 0.08 c0 0.12 -0.6 0.68 -0.72 0.68 l-0.24 0.12 c-0.08 0.08 -0.28 0.16 -0.44 0.2 l-0.52 0.04 c-0.12 0 -0.24 0 -0.24 -0.04 c0 0 0 -0.04 -0.08 -0.04 c-0.32 -0.04 -0.64 -0.08 -0.72 -0.16 c-0.04 -0.04 -0.12 -0.04 -0.12 -0.04 l-0.24 -0.08 c-0.08 -0.08 -0.24 -0.16 -0.32 -0.16 c-0.04 -0.04 -0.08 -0.04 -0.08 -0.08 l0.08 -0.04 l-0.12 -0.08 c-0.04 -0.04 -0.12 -0.04 -0.16 -0.04 l-0.04 0 l0 -0.04 c0 -0.04 -0.04 -0.08 -0.12 -0.08 s-0.2 -0.12 -0.32 -0.2 c-0.12 -0.12 -0.28 -0.24 -0.36 -0.28 c-0.12 -0.04 -0.2 -0.12 -0.24 -0.2 c0 -0.08 -0.08 -0.16 -0.12 -0.2 s-0.08 -0.08 -0.08 -0.12 s-0.04 -0.08 -0.08 -0.12 c-0.4 -0.44 -0.76 -0.92 -0.96 -1.36 c-0.04 -0.08 -0.12 -0.32 -0.24 -0.48 c-0.08 -0.28 -0.16 -0.48 -0.2 -0.92 l-0.04 -0.72 l0.04 -0.36 c0.04 0 0.04 -0.08 0.04 -0.2 c0 -0.16 0.04 -0.28 0.12 -0.36 c0.08 -0.04 0.16 -0.2 0.2 -0.32 c0.04 -0.16 0.08 -0.28 0.16 -0.36 c0.04 -0.04 0.08 -0.12 0.08 -0.2 c0 -0.04 0.04 -0.12 0.08 -0.12 c0.04 -0.04 0.48 -0.68 0.48 -0.72 s0 -0.08 0.04 -0.08 s0.04 0 0.04 -0.08 c0 -0.04 0.04 -0.08 0.08 -0.08 l0.32 -0.4 c0.08 -0.04 0.2 -0.2 0.2 -0.32 l-0.04 -0.08 c0 -0.04 0 -0.04 0.04 -0.04 l0.04 0 l0.08 -0.04 l0.04 -0.04 l-0.04 -0.04 s0 -0.04 0.04 -0.04 c0.08 -0.04 0.16 -0.16 0.24 -0.28 c0.12 -0.12 0.2 -0.28 0.24 -0.28 c0.12 -0.16 0.72 -0.88 0.72 -0.92 l0.12 -0.08 c0.04 0 0.12 -0.08 0.12 -0.16 c0.04 -0.12 0.76 -0.88 1.16 -1.16 l0.92 -0.76 l0.44 -0.24 c0.08 -0.04 0.12 -0.08 0.12 -0.12 l0 -0.08 l0.2 -0.08 c0.28 -0.12 1.08 -0.32 1.4 -0.36 l0.36 -0.04 l0.08 -0.04 c0.04 0 0.04 0.04 0.04 0.08 s0.08 0.12 0.16 0.2 l0.2 0.16 l0.12 0.04 c0.04 0 0.08 0.04 0.08 0.08 c0.04 0.08 0.08 0.16 0.16 0.2 c0.36 0.2 0.68 0.56 0.76 0.76 c0.04 0.16 0.08 0.2 0.16 0.2 c0.04 0 0.08 -0.08 0.08 -0.12 l0 -0.04 l0.04 0 l0 -0.24 l0.04 0 l0.08 -0.04 c0.04 -0.04 0.08 -0.64 0.08 -1 c0 -0.16 0.04 -0.32 0.08 -0.4 s0.08 -0.2 0.08 -0.28 s0 -0.16 0.04 -0.16 s0.08 0.04 0.08 0.08 c0 0.08 0.08 0.12 0.16 0.12 c0.12 0.04 0.24 0.08 0.28 0.12 c0 0.04 0.08 0.08 0.16 0.08 c0.04 0 0.16 0.04 0.28 0.12 c0.08 0.08 0.2 0.16 0.24 0.16 c0.08 0.04 0.12 0.12 0.16 0.2 c0 0.12 0.08 0.16 0.24 0.24 c0.12 0.08 0.24 0.16 0.24 0.24 c0.04 0.08 0.12 0.2 0.2 0.24 c0.08 0.08 0.12 0.16 0.12 0.24 s0.04 0.12 0.08 0.12 l0.08 -0.08 l0.04 0 s0.04 0.04 0.04 0.12 s0 0.2 0.04 0.2 l0.04 0.68 c0 0.56 -0.04 1.2 -0.08 1.28 c-0.04 0.16 -0.08 0.6 -0.08 0.88 c0 0.08 0 0.16 -0.04 0.2 c-0.04 0.12 -0.04 0.28 -0.04 0.76 c-0.04 0.2 -0.04 0.4 -0.08 0.4 s-0.04 0.08 -0.04 0.16 l-0.04 0.2 c-0.04 0 -0.04 0 -0.04 0.04 l0 0.04 c0 0.04 0 0.12 -0.04 0.2 l-0.04 0.12 l0.08 0.12 l-0.08 0.08 l0.08 0.08 l-0.08 0.2 c-0.04 0.08 -0.04 0.24 -0.04 0.32 c0 0.04 -0.04 0.12 -0.08 0.12 s-0.04 0.04 -0.04 0.08 l0.04 0.08 c0.04 0 0.08 0.04 0.08 0.08 l-0.04 0.16 l-0.04 0.24 l0.04 0.04 l-0.04 0.12 c-0.04 0.08 -0.04 0.24 -0.04 0.36 s0 0.2 -0.04 0.2 s-0.04 0 -0.04 0.04 l0 0.04 c0.04 0.04 0.04 0.44 0.04 0.84 l0.04 0.88 l0.08 -0.08 l0.04 0.04 l-0.08 0.12 c-0.08 0.04 -0.08 0.08 -0.08 0.16 c0.04 0.16 0.12 1.08 0.12 1.64 c0 0.2 0 0.36 -0.04 0.36 s-0.08 0.08 -0.08 0.16 l0.04 0.16 c0.08 0.08 0.12 0.24 0.12 0.32 l0 0.08 c-0.04 0 -0.04 0.04 -0.04 0.08 l-0.04 0.24 l-0.08 0.36 c0 0.08 0 0.16 -0.04 0.2 l-0.04 0.16 c0 0.12 0 0.12 -0.12 0.12 l-0.04 0 c-0.04 0 -0.04 0.04 -0.04 0.16 c0 0.08 0 0.12 -0.04 0.12 l-0.08 -0.08 z M82.22000000000001 22.48 l-0.12 0 c-0.04 0 -0.04 -0.04 -0.04 -0.08 c0 0 0 -0.04 0.08 -0.04 c0.04 0 0.08 0 0.08 0.08 l0 0.04 z M82.38000000000001 22.56 l-0.04 -0.04 l0.08 -0.08 l0.08 0.08 z M84.18 24.560000000000002 l0.04 -0.04 l0.04 -0.16 c-0.04 0 -0.04 0 -0.04 0.04 c-0.04 0.04 -0.08 0.08 -0.08 0.12 z M77.54000000000002 33.76 l0.28 -0.04 c0.12 0 0.28 -0.04 0.32 -0.08 l0.16 -0.08 c0.12 -0.04 0.48 -0.2 0.6 -0.32 l0.32 -0.24 l0.16 -0.16 c0.08 -0.16 0.2 -0.28 0.28 -0.28 s0.52 -0.56 0.52 -0.68 l0 -0.04 l0.08 -0.16 c-0.04 -0.12 -0.04 -0.12 -0.16 -0.12 l-0.2 -0.04 c-0.04 0 -0.04 0.04 -0.04 0.08 c-0.04 0 -0.04 -0.04 -0.04 -0.08 s0.04 -0.08 0.12 -0.12 l0.08 -0.04 l0 -0.16 l0.04 -0.04 c0.08 0 0.16 0.08 0.16 0.12 l-0.08 0 c-0.04 0 -0.08 0.04 -0.08 0.12 l0 0.12 c0.24 -0.2 0.48 -0.32 0.56 -0.68 c0.04 -0.12 0.12 -0.24 0.24 -0.24 c0.08 0 0.12 -0.04 0.12 -0.08 s0 -0.04 0.04 -0.04 l0.08 0 l0 -0.04 c0 -0.08 0.04 -0.12 0.08 -0.12 s0.08 -0.04 0.08 -0.08 l-0.04 -0.12 l0.08 0.04 s0.04 0 0.04 -0.04 s0.04 -0.04 0.08 -0.04 s0.08 -0.04 0.08 -0.08 c0 -0.08 0 -0.08 -0.04 -0.08 l-0.04 0.04 l0 -0.04 c0 -0.04 0 -0.16 0.08 -0.28 c0.04 -0.04 0.08 -0.12 0.08 -0.2 l0 -0.08 l0.2 0 c0.04 0 0.08 0 0.08 -0.04 l0 -0.08 c0 -0.12 0.04 -0.2 0.2 -0.32 c0.12 -0.12 0.16 -0.16 0.16 -0.28 l0 -0.08 c0 -0.2 0.08 -0.4 0.2 -0.4 c0.04 0 0.08 -0.04 0.08 -0.08 c0 -0.08 0.04 -0.12 0.08 -0.12 l0.04 0 s0.04 -0.04 0.04 -0.24 l0 -0.04 l0.04 0 l0.08 -0.12 c0 -0.08 0.04 -0.16 0.08 -0.16 s0.04 -0.04 0.04 -0.08 l-0.04 -0.08 l0.08 -0.04 c0.04 0 0.08 -0.04 0.08 -0.12 l0.04 -0.16 c0.04 0 0.08 -0.04 0.08 -0.08 s0.04 -0.04 0.08 -0.04 l0.04 0 c0.04 0 0.04 -0.04 0.04 -0.2 c0 -0.04 0.04 -0.08 0.12 -0.12 c0.08 0 0.08 -0.04 0.08 -0.12 l0 -0.12 c0.04 0 0.08 -0.08 0.08 -0.12 c0 -0.08 0.04 -0.2 0.12 -0.28 c0.12 -0.16 0.16 -0.28 0.16 -0.4 c0 -0.16 -0.08 -0.24 -0.28 -0.24 l-0.16 0 c-0.36 0.04 -0.92 0.24 -0.92 0.32 c0 0.04 -0.04 0.04 -0.08 0.04 l-0.04 0 c-0.08 0 -0.48 0.24 -0.48 0.28 c0 0.08 -0.12 0.2 -0.32 0.32 l-0.36 0.28 c-0.08 0.12 -0.16 0.16 -0.2 0.16 c0 -0.04 0.04 -0.12 0.12 -0.16 l0.04 -0.12 c-0.04 0 -0.16 0.12 -0.32 0.28 l-0.4 0.32 c-0.12 0.12 -0.52 0.56 -0.52 0.6 c0.04 0 0.24 -0.2 0.48 -0.44 s0.48 -0.4 0.48 -0.4 l0 0.04 c0 0.04 -0.08 0.12 -0.16 0.2 c-0.12 0.08 -0.2 0.2 -0.2 0.2 s-0.16 0.2 -0.36 0.36 l-0.36 0.36 c0 0.04 -0.12 0.16 -0.24 0.32 c-0.16 0.2 -0.28 0.32 -0.28 0.36 l-0.08 0.04 l-0.04 -0.04 c0 -0.08 0.2 -0.32 0.44 -0.6 c0.12 -0.12 0.2 -0.2 0.2 -0.24 c-0.08 0 -0.24 0.16 -0.68 0.68 l-0.16 0.24 l0.12 -0.04 c0 0.08 -0.08 0.16 -0.2 0.36 c-0.28 0.4 -0.4 0.56 -0.4 0.64 l0.04 0.08 l-0.08 -0.04 l-0.2 0.08 l0.04 -0.08 c0 -0.04 0 -0.08 -0.08 -0.08 c-0.04 0 -0.08 0.04 -0.08 0.08 s0 0.08 -0.04 0.08 s-0.16 0.24 -0.16 0.4 l0 0.04 c0 0.04 0 0.04 -0.04 0.04 l-0.08 0 c0 0.04 0 0.08 -0.04 0.08 s-0.04 0 -0.04 0.04 l-0.08 0.24 l-0.08 0.16 l0.08 0.08 l-0.04 0.04 c-0.04 0 -0.04 0.08 -0.04 0.12 s0 0.04 -0.04 0.04 s-0.12 0.08 -0.16 0.2 l-0.12 0.24 c-0.04 0 -0.04 0 -0.04 0.04 l0 0.04 l-0.12 0.32 c-0.12 0.28 -0.16 0.4 -0.16 0.48 l0.04 0.08 l0.04 0.04 l-0.08 0.08 c-0.04 0.04 -0.08 0.08 -0.08 0.12 l0.08 0.56 l0.04 0.12 c0.04 0.04 0.04 0.12 0.04 0.24 c0 0.16 0.04 0.16 0.16 0.16 l0.2 0 z M82.22000000000001 26 l-0.08 0 l-0.04 -0.04 l0 -0.04 z M83.18 26.48 l0.04 -0.2 l0.08 -0.04 l0 0.04 l-0.08 0.16 z M77.22000000000001 26.72 l0.08 -0.04 c0 -0.04 0 -0.08 -0.04 -0.08 l-0.04 0.08 l0 0.04 z M83.98000000000002 26.759999999999998 l0 -0.04 c0 -0.04 0 -0.04 -0.04 -0.04 s-0.04 0 -0.04 0.04 z M83.26000000000002 28.04 c0 0 0.08 -0.04 0.08 -0.08 s0 -0.04 -0.04 -0.04 s-0.08 0.04 -0.12 0.08 c0 0.04 0 0.04 0.04 0.04 l0.04 0 z M83.86000000000001 28.72 l0.04 -0.04 l0 -0.08 c-0.04 0 -0.08 0.04 -0.08 0.08 z M76.50000000000001 28.96 l0.04 -0.08 l-0.04 -0.04 l-0.08 0.08 c0 0.04 0.04 0.04 0.08 0.04 z M78.74000000000001 28.96 l0.08 -0.08 l-0.04 -0.04 l-0.08 0.08 c0 0.04 0.04 0.04 0.04 0.04 z M78.42000000000002 29.4 l0.08 -0.08 c0.04 -0.04 0.08 -0.08 0.08 -0.12 c-0.08 0 -0.2 0.12 -0.2 0.16 z M82.30000000000001 29.32 c0.04 0 0.08 -0.04 0.08 -0.08 l-0.04 0 c-0.04 0.04 -0.08 0.04 -0.08 0.08 l0.04 0 z M83.78000000000002 30 c0.08 0 0.2 -0.2 0.24 -0.32 l0 -0.12 l-0.04 0.08 c-0.04 0.08 -0.08 0.16 -0.12 0.16 c-0.04 0.04 -0.08 0.08 -0.08 0.16 l0 0.04 z M86.18 29.84 l0.04 -0.04 l0 -0.08 l-0.04 0 s-0.04 0 -0.04 0.04 c0 0.08 0 0.08 0.04 0.08 z M78.22000000000001 29.92 c-0.04 0 -0.04 -0.04 -0.04 -0.08 c0 0 0.04 0 0.04 -0.04 c0.04 0 0.04 0 0.04 0.04 l0.04 0.04 c0 0.04 0 0.04 -0.08 0.04 z M83.58000000000001 30.36 l0.08 -0.12 l-0.04 0 l-0.04 0.08 l0 0.04 z M83.78000000000002 30.72 l0.16 -0.32 c-0.04 0 -0.04 0.04 -0.12 0.08 l-0.08 0.2 z M77.42000000000002 30.8 l0.08 -0.04 c0 -0.04 -0.04 -0.04 -0.08 -0.08 l-0.08 0 l0 0.08 z M83.74000000000001 30.880000000000003 l0.04 -0.08 c-0.04 -0.04 -0.08 -0.08 -0.12 -0.08 l-0.04 0 z M80.18000000000002 31.08 c-0.04 0 -0.04 0 -0.04 -0.04 l0 -0.04 c0 -0.04 0.04 -0.08 0.08 -0.08 s0.04 0 0.04 0.04 s-0.04 0.08 -0.08 0.12 z M83.06000000000002 31.16 l0.08 -0.04 l0.08 -0.16 s0 -0.04 -0.04 -0.04 s-0.04 0.04 -0.04 0.04 l0 0.04 z M83.98000000000002 31.240000000000002 c0.04 0 0.08 -0.04 0.08 -0.12 s-0.04 -0.16 -0.08 -0.16 l-0.04 0 c-0.08 0 -0.16 0.04 -0.16 0.12 l0 0.04 l0.12 -0.04 c0.04 0 0.04 0 0.04 0.04 l0 0.08 c0 0.04 0.04 0.04 0.04 0.04 z M77.18000000000002 31.2 c0.04 0 0.08 -0.04 0.08 -0.08 l0 -0.08 s0 0.04 -0.04 0.04 c-0.04 0.04 -0.08 0.08 -0.08 0.12 l0.04 0 z M83.50000000000001 31.439999999999998 l-0.08 -0.12 c0 -0.08 -0.04 -0.08 -0.04 -0.08 l-0.04 0 c0 0.12 0.08 0.2 0.16 0.2 z M83.58000000000001 31.560000000000002 l0.08 -0.04 l0.04 -0.16 c0 -0.04 -0.04 -0.04 -0.04 -0.04 l-0.04 0.08 z M83.34000000000002 31.64 l0 -0.08 l-0.08 -0.12 c-0.04 0 -0.08 0 -0.08 0.04 c0 0.12 0.12 0.16 0.16 0.16 z M82.42000000000002 31.68 c0.04 0 0.08 -0.04 0.08 -0.08 l0.04 -0.08 l-0.04 0 c-0.04 0 -0.04 0.04 -0.08 0.08 l-0.04 0.04 z M82.70000000000002 31.72 c0.04 0 0.08 -0.04 0.12 -0.08 l0.04 -0.08 z M83.34000000000002 31.96 l0.12 -0.16 l0.04 -0.08 l-0.04 -0.04 l-0.12 0.16 l-0.04 0.08 z M83.06000000000002 31.880000000000003 c0.08 0 0.12 0 0.12 -0.04 l0 -0.04 c0 -0.08 0 -0.08 -0.04 -0.08 l-0.08 0.04 l-0.12 0.08 c0 0.04 0.04 0.04 0.12 0.04 z M79.78000000000002 31.84 c-0.04 0 -0.04 0 -0.04 -0.04 l0.08 -0.04 c0.04 0 0.04 0 0.04 0.04 z M82.98000000000002 32.16 l0.04 -0.04 c0.04 -0.04 0.04 -0.08 0.04 -0.12 l-0.04 0 c-0.04 0 -0.04 0 -0.04 0.08 l0 0.08 z M82.86000000000001 32.32 c0.04 0 0.04 0 0.04 -0.04 l-0.04 -0.08 c-0.04 0 -0.04 0 -0.04 0.04 s0 0.08 0.04 0.08 z M83.30000000000001 32.32 c0.04 0 0.04 -0.04 0.04 -0.08 s0 -0.04 -0.04 -0.04 l-0.08 0.08 c0 0.04 0.04 0.04 0.08 0.04 z M82.70000000000002 32.56 l0.04 -0.08 l-0.04 -0.04 c-0.04 0 -0.04 0.04 -0.04 0.04 c0 0.04 0 0.08 0.04 0.08 z M82.58000000000001 32.8 l0.04 -0.04 c0.04 -0.04 0.08 -0.08 0.08 -0.12 l-0.04 0 l-0.08 0.08 l0 -0.08 l-0.04 0 c-0.04 0 -0.04 0.04 -0.04 0.12 z M82.90000000000002 32.88 c0.04 0 0.04 -0.04 0.08 -0.08 l0 -0.04 c-0.04 0 -0.08 0.04 -0.08 0.08 l0 0.04 z M79.02000000000001 33 l-0.08 -0.08 c0 -0.04 0 -0.04 0.04 -0.04 l0.08 0.04 c0 0.04 0 0.08 -0.04 0.08 z M81.42000000000002 34.56 l0.12 -0.04 l0.04 -0.08 s0 -0.04 -0.04 -0.04 s-0.12 0.04 -0.12 0.12 l0 0.04 z M99.27200000000002 38.04 l-0.04 -0.04 c-0.04 -0.04 -0.04 -0.08 -0.04 -0.16 l0 -0.04 l-0.04 0 l-0.08 0.04 l0 -0.08 c0 -0.04 -0.08 -0.12 -0.16 -0.12 l-0.08 0.04 l0 0.04 l0.08 0.16 l-0.16 -0.08 l-0.28 -0.24 c-0.04 -0.04 -0.08 -0.08 -0.12 -0.08 l-0.6 -0.28 c-0.16 -0.08 -0.24 -0.12 -0.28 -0.2 c0 -0.04 -0.04 -0.12 -0.12 -0.2 s-0.12 -0.24 -0.12 -0.44 l0.04 -0.28 l0.04 -0.6 l-0.04 -0.68 l0.04 -0.08 l0.04 -0.04 l-0.04 -0.04 s0 -0.08 0.04 -0.12 l0.04 -0.08 l-0.04 -0.04 c-0.04 -0.04 -0.08 -0.04 -0.08 -0.08 l0.12 -0.24 c0.04 0 0.04 -0.04 0.04 -0.12 c0 -0.04 0 -0.12 0.04 -0.2 s0.04 -0.16 0.04 -0.2 l0.08 -0.16 c0 -0.04 -0.04 -0.04 -0.08 -0.04 l-0.04 0.04 c-0.04 0 -0.04 -0.04 -0.04 -0.12 c0 -0.04 0.04 -0.12 0.08 -0.12 l0 -0.32 l0.08 -0.64 l0 -0.12 s0 -0.08 0.04 -0.12 l0.04 -0.12 l-0.04 -0.04 l0.04 -0.08 l0.08 -0.28 l-0.04 -0.24 l0.04 -0.28 l0.08 -0.04 l0.04 0.12 l0 0.16 l0.04 -0.2 l-0.04 -0.2 l-0.04 -0.12 l0.08 -0.32 l0 0.4 c0.04 -0.24 0.08 -0.2 0.08 -0.44 l-0.08 -0.32 l0.12 0.04 c0.04 0 0.04 0 0.04 -0.08 l0 -0.08 c0 -0.08 0 -0.12 0.04 -0.16 c0.04 0 0.04 -0.04 0.04 -0.08 l0.12 -0.4 l-0.04 -0.04 l-0.16 0.08 l-0.04 -0.08 c0 -0.08 0 -0.12 0.08 -0.12 l0.04 0 l0.04 -0.08 l0 -0.2 l-0.08 0.04 l0 -0.48 c0 -0.08 0.04 -0.24 0.12 -0.32 l0.04 -0.16 l-0.08 -0.12 l0.04 -0.04 s0.04 0 0.04 0.04 l0.04 0.08 l0.08 -0.04 l0.04 -0.08 l-0.04 -0.08 c-0.04 0 -0.04 -0.08 -0.08 -0.16 l0 -0.08 l0.04 0.04 l0.08 0.04 l0.04 -0.04 l0 -0.12 c0 -0.08 0 -0.16 -0.04 -0.16 l-0.08 0 l0.08 -0.16 c0.08 -0.04 0.12 -0.16 0.12 -0.24 l-0.04 -0.12 l-0.08 -0.04 l0.08 0.12 l-0.04 0.04 c-0.04 0 -0.04 -0.04 -0.04 -0.08 c0 -0.08 0 -0.16 0.08 -0.2 c0.04 -0.04 0.08 -0.12 0.08 -0.2 l-0.04 -0.12 c-0.04 0.16 -0.04 0.24 -0.12 0.24 c-0.04 0 -0.04 -0.04 -0.04 -0.08 l0 -0.04 c0.04 -0.04 0.04 -0.08 0.04 -0.12 l0 -0.08 c0 -0.08 0.04 -0.2 0.08 -0.2 l0.04 0 c0.08 0 0.08 -0.04 0.08 -0.16 l-0.04 -0.08 l-0.08 0.08 l-0.04 -0.04 l0.16 -0.36 l-0.04 -0.08 l-0.08 0.04 l-0.04 -0.04 l0.08 -0.28 c0 -0.16 -0.04 -0.4 -0.12 -0.72 c-0.04 -0.2 -0.04 -0.24 -0.12 -0.24 l-0.08 0 l-0.52 0.36 c-0.32 0.28 -0.48 0.4 -0.84 0.8 l-0.6 0.68 c0 0.08 -0.28 0.48 -0.32 0.48 s-0.36 0.4 -0.36 0.48 l-0.04 0.12 l-0.04 0 c0 0.08 -0.16 0.32 -0.32 0.52 c-0.08 0.12 -0.12 0.2 -0.12 0.28 c0 0.04 0 0.08 -0.04 0.08 c-0.08 0.04 -0.24 0.28 -0.24 0.36 c0 0 0 0.08 -0.04 0.12 c-0.12 0.16 -0.16 0.24 -0.16 0.28 l0 0.04 c0 0.04 -0.04 0.08 -0.08 0.08 c-0.04 0.04 -0.04 0.08 -0.04 0.12 c0 0.16 -0.08 0.28 -0.16 0.32 c-0.04 0 -0.08 0 -0.08 0.08 l0.04 0.2 c0 0.12 -0.04 0.2 -0.12 0.2 c-0.04 0 -0.08 0 -0.08 0.04 l-0.04 0.08 l0.08 -0.08 l0.04 0.04 c0 0.04 0 0.08 -0.04 0.08 s-0.04 0.04 -0.04 0.12 c0.04 0.04 0.04 0.12 0.04 0.12 c-0.04 0.04 -0.08 0.12 -0.08 0.2 s-0.08 0.2 -0.12 0.28 s-0.12 0.2 -0.12 0.28 s-0.04 0.2 -0.08 0.28 l-0.16 0.52 l-0.08 0.4 c0 0.12 0 0.24 -0.04 0.28 c-0.04 0.08 -0.16 0.68 -0.2 1 c0 0.12 0 0.24 0.04 0.28 l0.04 0.08 c0 0.04 0 0.04 -0.04 0.04 c-0.08 0 -0.12 0.08 -0.12 0.28 l-0.08 0.8 l0.04 0.4 c0 0.12 0 0.2 -0.04 0.24 c-0.04 0 -0.08 0.04 -0.08 0.08 l0.04 0.04 l0.08 -0.04 c0.04 0 0.08 0.04 0.08 0.08 c0 0.08 -0.04 0.12 -0.08 0.16 s-0.08 0.08 -0.08 0.16 l0.04 0.12 l-0.16 -0.04 c-0.08 -0.04 -0.16 -0.04 -0.2 -0.04 l-0.04 0 l-0.16 -0.08 l0 0.08 l-0.16 0.2 l0.04 0.16 c0 0.04 0 0.08 -0.04 0.08 l-0.08 -0.04 l-0.16 0 c-0.04 0 -0.08 -0.04 -0.08 -0.12 s-0.04 -0.12 -0.08 -0.16 c-0.04 0 -0.04 0.04 -0.04 0.08 l0 0.16 l0.04 0.08 c-0.04 0 -0.04 -0.04 -0.12 -0.08 l-0.08 -0.08 l0 0.12 c0 0.04 0 0.04 -0.04 0.04 l-0.08 -0.08 c-0.04 -0.04 -0.16 -0.12 -0.24 -0.12 c-0.12 -0.04 -0.24 -0.12 -0.28 -0.16 c-0.04 -0.08 -0.2 -0.16 -0.32 -0.2 c-0.08 0 -0.24 -0.08 -0.28 -0.16 s-0.12 -0.12 -0.24 -0.12 l-0.08 0 c-0.24 0 -0.36 -0.2 -0.56 -1.08 c-0.08 -0.36 -0.16 -0.56 -0.24 -0.6 l0.08 -0.2 c0.12 -0.16 0.16 -0.28 0.16 -0.44 c0 -0.4 -0.04 -0.88 -0.08 -1.2 l0.04 -1.52 l-0.04 -0.52 l0.08 -0.56 s-0.04 -0.24 -0.04 -0.52 c0.04 -0.48 0.04 -1.04 0.04 -1.32 c0 -0.08 0 -0.32 0.04 -0.56 l0 -0.72 c0 -0.2 0 -0.36 0.04 -0.4 c0 0 0 -0.08 -0.04 -0.12 l0 -0.32 l0.04 -0.2 l-0.04 -0.16 c0 -0.08 0 -0.2 0.04 -0.24 s0.04 -0.16 0.04 -0.28 l-0.04 -0.2 c0 -0.04 0 -0.04 0.04 -0.04 l0.16 0.04 l0 -0.04 c0 -0.04 -0.04 -0.12 -0.08 -0.12 c-0.04 -0.04 -0.04 -0.24 -0.04 -0.4 s0 -0.32 0.04 -0.32 l0.04 -0.04 l-0.04 -0.04 c-0.04 -0.04 -0.08 -0.08 -0.08 -0.12 l0.08 -0.48 l-0.08 -0.96 l0.04 -0.16 l0 -0.2 c0 -0.08 0 -0.2 0.04 -0.24 l0.04 -0.08 l-0.04 -0.04 c-0.04 0 -0.08 -0.12 -0.08 -0.28 l-0.04 -0.16 l0.04 -0.08 l0 -0.52 l0.04 -0.12 l-0.04 -0.08 l-0.04 -0.4 l0.04 -0.72 c0.04 -0.08 0.04 -0.16 0.04 -0.24 l0.04 -0.2 l0.08 -0.08 l-0.12 0 c-0.04 0 -0.04 -0.04 -0.08 -0.2 c0 -0.16 0 -0.28 0.04 -0.32 l0.04 -0.12 l-0.04 -0.24 l0.04 -0.44 c0 -0.08 -0.04 -0.16 -0.08 -0.16 l-0.04 -0.04 l0.12 -0.12 l-0.12 -0.12 l0.04 0 c0.04 -0.04 0.04 -0.24 0.04 -0.48 l-0.04 -0.36 l0.04 -0.2 l0.04 -0.04 l-0.08 0.04 l-0.04 -0.04 c0 -0.04 0 -0.12 0.04 -0.16 l0.04 -0.08 l-0.08 0.08 l-0.04 -0.08 l0.12 -0.24 l-0.04 0 c-0.04 0 -0.08 -0.04 -0.08 -0.12 l0 -0.08 c0.08 -0.2 0.16 -0.52 0.16 -0.64 l0 -0.16 l0.04 -0.04 l-0.04 -0.04 l-0.04 0 l-0.04 0.04 l0 -0.12 l0.08 -0.12 l-0.08 -0.08 l0.04 -0.16 c0 -0.68 0.12 -1.04 0.84 -1.48 c0.36 -0.12 0.64 -0.24 0.96 -0.24 l0.16 0 c0.36 0.16 0.56 0.28 0.72 0.68 l0.08 0.4 l0 0.44 c0.04 0 0.08 0.04 0.08 0.08 c0 0.08 -0.04 0.12 -0.08 0.12 l-0.08 -0.04 l0 0.04 l0.04 0.08 l0.04 0 l0.04 0.08 l0 0.04 c0 0.04 0 0.08 -0.04 0.08 l-0.04 0.04 l0.08 0.2 l-0.08 0.12 l0.04 0.08 c0 0.08 0 0.12 -0.04 0.16 l0.12 0.08 l-0.08 0.16 l-0.04 0.2 l0.12 0.24 c0 0.04 0 0.04 -0.04 0.04 l-0.08 -0.04 c-0.04 0 -0.04 0.04 -0.04 0.12 l0 0.2 l-0.04 0.08 l0 0.16 c0 0.12 0.04 0.24 0.08 0.24 l0.04 -0.08 l0 -0.08 l0.04 0.08 l-0.08 0.24 c-0.04 0.04 -0.08 0.08 -0.08 0.16 l0.04 0.12 l0 0.24 l-0.04 0.08 l0.08 0 l0.04 -0.04 l0 -0.04 s0 -0.04 0.04 -0.04 l0.04 0 c0.04 0 0.08 0.04 0.08 0.08 l-0.08 0.08 c-0.04 0.04 -0.04 0.08 -0.04 0.16 c0 0.04 0 0.12 0.08 0.12 l-0.04 0.32 c0 0.08 0 0.16 0.04 0.16 s0.08 0.08 0.08 0.2 s-0.04 0.24 -0.08 0.28 s-0.08 0.08 -0.12 0.08 l-0.08 0 l0.08 0.16 l-0.04 0.08 c-0.04 0.04 -0.04 0.12 -0.04 0.16 c0 0.08 0.04 0.12 0.08 0.12 c0.04 -0.04 0.04 -0.12 0.04 -0.2 l0 -0.12 c0.08 0 0.12 0.04 0.12 0.08 l-0.04 0.04 l0 0.16 c0 0.04 0 0.08 -0.04 0.08 c-0.08 0.04 -0.12 0.08 -0.12 0.12 s0.04 0.08 0.08 0.08 c0.08 0.04 0.12 0.12 0.12 0.24 l0.04 0.12 c0 0.08 -0.04 0.08 -0.12 0.08 c-0.04 0 -0.08 0 -0.08 0.04 l0.04 0.04 c0.04 0 0.08 0.12 0.08 0.24 c0 0.4 0.04 0.48 0.08 0.6 l0.04 0.12 l-0.12 0.24 l0.12 0.08 l-0.08 0.16 l-0.04 0.16 c0 0.08 0 0.12 0.04 0.12 l0.08 -0.04 c0.04 0 0.04 0 0.04 0.08 s-0.04 0.12 -0.04 0.12 c-0.04 0 -0.08 0.08 -0.08 0.16 c0 0.12 -0.04 0.2 -0.08 0.2 s-0.08 0.04 -0.08 0.08 l0.08 0 c0.08 0 0.08 0.12 0.08 0.24 l0 0.12 s0 0.08 0.08 0.12 s0.08 0.12 0.08 0.32 l0 0.16 l-0.04 -0.04 l-0.08 -0.04 l0 0.04 l0.08 0.16 c0.04 0.04 0.04 0.08 0.04 0.12 s0 0.08 -0.04 0.08 l-0.08 -0.04 l0 0.08 c0 0.04 0 0.08 0.04 0.08 s0.08 0.24 0.08 0.36 c0 0.04 -0.04 0.08 -0.08 0.08 s-0.04 0.04 -0.04 0.12 l0 0.28 l-0.04 0.12 l0.08 0.08 c0.04 0.04 0.08 0.04 0.08 0.08 l-0.2 0.8 c-0.04 -0.28 -0.04 -0.4 -0.08 -0.4 c0 0 -0.04 0.08 -0.04 0.28 c0 0.16 -0.08 0.36 -0.12 0.48 l-0.04 0.2 l0.08 -0.04 l0 -0.08 l0.16 0.08 l0 -0.16 l0.04 -0.08 l0.04 0 l0 0.12 c0 0.36 -0.04 0.48 -0.08 0.48 l-0.04 -0.04 l-0.12 0.16 c0 0.04 0.04 0.04 0.12 0.04 s0.12 0.04 0.12 0.08 l-0.08 0.04 l-0.08 0.12 l-0.04 0.16 l0.08 0.16 l0.16 0.16 c0.08 0 0.16 -0.08 0.16 -0.16 l-0.04 -0.04 c0 -0.04 0 -0.04 0.04 -0.04 c0.12 -0.04 0.2 -0.2 0.2 -0.36 l0 -0.16 c0 -0.08 0 -0.12 0.04 -0.12 s0.04 0.04 0.04 0.12 l0.04 0.08 l0 -0.04 l0.12 -0.12 c0.04 -0.04 0.08 -0.04 0.08 -0.12 l0 -0.08 l-0.12 0.16 l-0.08 -0.04 l-0.04 -0.08 l0.04 -0.08 c0.08 0 0.28 -0.28 0.48 -0.56 l0.64 -0.76 c0.12 -0.08 0.2 -0.24 0.2 -0.28 l0 -0.04 l0.04 0 c0.04 0 0.12 -0.04 0.16 -0.16 c0.04 -0.08 0.12 -0.16 0.16 -0.16 l0.04 0 c0.08 0 0.2 -0.12 0.2 -0.16 l0 -0.04 c0 -0.04 0.04 -0.08 0.12 -0.12 c0.04 0 0.12 -0.04 0.12 -0.08 s0.08 -0.12 0.2 -0.16 c0.08 -0.04 0.12 -0.08 0.12 -0.12 l0 -0.04 c0 -0.04 0.04 -0.12 0.08 -0.12 l0 0.08 c0.04 0 0.04 -0.04 0.08 -0.08 c0.04 -0.08 0.12 -0.12 0.16 -0.16 c0.08 0 0.12 -0.04 0.16 -0.08 l0.08 -0.04 c0.04 0 0.16 -0.04 0.24 -0.12 c0.12 -0.12 0.2 -0.12 0.52 -0.16 l0.4 0 c0.52 0 1 0.04 1.08 0.12 s0.76 0.4 0.84 0.4 c0.16 0 0.8 0.48 0.96 0.68 l0.2 0.28 c0.16 0.16 0.36 0.64 0.44 0.88 c0.04 0.16 0.08 0.32 0.12 0.36 l0.08 0.08 l-0.04 0.08 c0 0.04 0 0.28 0.04 0.48 l0 0.52 c0 0.08 0 0.32 0.04 0.48 c0 0.16 0 0.32 -0.04 0.36 l0 0.12 l-0.12 1.04 c-0.04 0.08 -0.04 0.16 -0.04 0.24 l0 0.08 c0 0.08 0 0.12 -0.04 0.16 l-0.04 0.16 l0 0.12 c0 0.16 -0.04 0.4 -0.08 0.6 l-0.04 0.36 c0 0.24 -0.12 1.12 -0.2 1.28 c0 0.12 -0.08 0.16 -0.12 0.16 c0 0 -0.04 0 -0.04 0.04 s0.04 0.04 0.08 0.04 s0.08 0.2 0.08 0.36 l0 0.16 l-0.12 0.68 c-0.04 0.04 -0.04 0.2 -0.04 0.36 c0 0.12 0 0.32 -0.04 0.44 c-0.04 0.16 -0.08 0.4 -0.08 0.56 c-0.04 0.2 -0.08 0.36 -0.12 0.36 s-0.08 0 -0.08 0.04 s0 0.04 0.04 0.04 l0.04 -0.04 l0.04 0 l0 0.28 c-0.04 0.16 -0.04 0.32 -0.04 0.4 l0 0.04 c0 0.04 0 0.08 -0.04 0.08 l-0.04 0.16 c0 0.08 0 0.28 -0.04 0.44 l0 0.64 l-0.04 0.08 l0.04 0.04 l-0.08 0.12 l0.04 0 c0.04 0 0.04 0.04 0.04 0.16 c-0.04 0.08 -0.04 0.24 -0.04 0.4 s-0.04 0.28 -0.08 0.36 l-0.04 0.04 l0.04 0.08 c0.04 0 0.08 0.12 0.08 0.2 l0 0.08 c0 0.08 0 0.08 -0.04 0.08 l-0.08 0 c-0.08 0 -0.16 0.04 -0.2 0.08 l-0.04 0.04 c-0.04 0 -0.04 -0.04 -0.04 -0.12 l0.04 -0.2 l-0.08 0.04 c-0.04 0.08 -0.08 0.16 -0.08 0.24 c-0.04 0.08 -0.12 0.16 -0.2 0.16 z M92.15200000000002 13.719999999999999 c0.04 0 0.04 -0.04 0.04 -0.08 s0 -0.04 -0.04 -0.04 l-0.04 0 c-0.04 0 -0.04 0.04 -0.04 0.08 s0.04 0.04 0.08 0.04 z M92.15200000000002 15.52 l0.12 -0.16 l-0.04 -0.08 l-0.04 0.04 s-0.04 0 -0.04 0.04 l-0.04 0.12 z M92.15200000000002 15.920000000000002 l0.16 -0.32 l-0.08 0 c-0.04 0 -0.08 0.04 -0.08 0.08 l0 0.24 z M92.552 16.04 l0 -0.08 s0 -0.04 0.04 -0.04 c0 0 0.04 0 0.04 0.04 s-0.04 0.08 -0.08 0.08 z M92.19200000000001 16.56 l0.04 -0.08 l0 -0.2 c0 -0.04 0 -0.04 -0.04 -0.04 s-0.04 0.12 -0.04 0.2 z M92.47200000000001 17 l0.04 -0.04 l0 -0.04 c0 -0.04 0 -0.08 -0.04 -0.08 l-0.04 0.08 c0 0.04 0 0.08 0.04 0.08 z M89.912 17.52 l0.08 -0.08 l-0.08 -0.12 l-0.04 0.04 l0 0.08 c0 0.04 0 0.08 0.04 0.08 z M92.51200000000001 18.88 l0.04 -0.04 l-0.04 -0.04 c0 -0.04 -0.04 -0.04 -0.04 -0.04 l0 0.08 z M89.87200000000001 19.44 l0.08 -0.04 l-0.04 -0.08 l-0.08 0.08 z M92.51200000000001 20 l0.08 -0.16 c0 -0.04 -0.04 -0.04 -0.04 -0.04 c-0.04 0 -0.08 0.04 -0.08 0.12 z M92.59200000000001 20.4 l0 -0.04 c0 -0.04 0 -0.08 -0.04 -0.12 l0 0.08 z M95.99200000000002 22.8 l0.12 -0.08 l0 -0.08 l-0.08 0.04 c-0.04 0 -0.08 0.04 -0.08 0.08 s0 0.04 0.04 0.04 z M94.83200000000001 23.8 c0.08 0 0.12 -0.08 0.12 -0.12 l0 -0.04 l-0.08 0.04 c-0.04 0 -0.08 0.04 -0.08 0.08 z M89.87200000000001 24.68 c0.04 0 0.04 -0.04 0.08 -0.08 l0.04 -0.04 l-0.04 -0.04 c-0.04 0 -0.04 0.04 -0.08 0.08 l0 0.08 z M94.71200000000002 23.96 l0.04 -0.08 c0 -0.04 0 -0.04 -0.04 -0.04 l-0.04 0.04 c0 0.04 0 0.08 0.04 0.08 z M89.87200000000001 24.96 l0.04 -0.04 c0 -0.04 -0.04 -0.04 -0.08 -0.04 s-0.04 0.04 -0.04 0.04 l0.04 0.04 l0.04 0 z M92.27200000000002 24.84 l0.04 -0.08 l-0.08 -0.04 l-0.04 0.08 l0.04 0.04 l0.04 0 z M97.87200000000001 24.439999999999998 c-0.04 0 -0.08 0 -0.08 -0.04 l0.04 -0.08 l0.04 0 c0.04 0 0.04 0 0.04 0.04 s0 0.08 -0.04 0.08 z M96.15200000000002 26.28 c-0.04 0 -0.04 -0.04 -0.04 -0.12 c0.12 0 0.08 -0.12 0.12 -0.12 l0 0.04 c0 0.08 -0.04 0.16 -0.08 0.2 z M98.59200000000001 26.08 c0 -0.04 0 -0.08 -0.04 -0.12 l0 0.04 c0 0.08 0 0.08 0.04 0.08 z M95.75200000000001 26.8 l-0.04 0 c0 -0.08 0.12 -0.28 0.16 -0.28 l0 0.04 c0 0.04 -0.04 0.2 -0.12 0.24 z M89.912 27.64 l0.04 -0.04 l-0.04 -0.08 c-0.04 0 -0.08 0.04 -0.08 0.08 z M92.47200000000001 27.64 l0.04 -0.04 c0 -0.04 -0.04 -0.08 -0.08 -0.08 l-0.04 0.08 c0 0.04 0.04 0.04 0.08 0.04 z M95.39200000000001 27.32 l-0.04 -0.04 l0.16 -0.2 l0 0.08 c0 0.08 -0.04 0.16 -0.12 0.16 z M98.35200000000002 26.96 l0 -0.08 c0 -0.04 0.04 -0.08 0.08 -0.08 c0 0.04 0 0.08 -0.04 0.12 z M94.11200000000001 28.32 c0.04 0 0.04 -0.04 0.08 -0.08 c0 -0.04 0 -0.04 -0.04 -0.04 s-0.04 0 -0.04 0.04 l0 0.08 z M98.27200000000002 28.2 l0.08 -0.04 l-0.04 -0.08 l-0.08 0.08 c0 0.04 0 0.04 0.04 0.04 z M98.23200000000001 28.48 l0.04 -0.04 l-0.04 -0.08 l-0.04 0 z M98.23200000000001 28.68 l0.08 -0.04 l-0.08 -0.04 l0 -0.04 l-0.04 0.04 z M94.43200000000002 29.52 l-0.04 -0.04 l0 -0.04 c0 -0.04 0.04 -0.04 0.04 -0.04 s0.04 0 0.04 0.04 z M100.632 28.96 l0.12 -0.16 l0.04 -0.12 c-0.04 0.04 -0.12 0.08 -0.16 0.16 l0 0.12 z M100.43200000000002 28.880000000000003 l0.04 -0.04 l-0.04 -0.04 c0 -0.04 -0.04 -0.04 -0.04 -0.04 l0 0.08 z M93.43200000000002 29.96 l0.08 -0.04 l0 -0.04 l-0.08 0 l0 0.08 z M97.99200000000002 29.8 c-0.04 0 -0.04 0 -0.04 -0.08 s0 -0.2 0.04 -0.2 l0 -0.04 l0.04 0.04 z M94.11200000000001 30.48 l-0.08 0 l0.04 -0.12 l0.08 0 z M100.59200000000001 29.84 l0.08 -0.04 l-0.04 -0.08 l-0.04 0.08 l0 0.04 z M98.15200000000002 30.240000000000002 l0.08 -0.04 l0 -0.04 l-0.16 0.08 l0.08 0 z M93.83200000000001 31.2 l-0.04 -0.08 l0 -0.04 l0.04 0 l0 0.12 z M97.99200000000002 31.28 c0 0 0.04 0 0.04 -0.04 l0 -0.04 l-0.04 0 c-0.04 0 -0.04 0 -0.04 0.04 s0 0.04 0.04 0.04 z M97.83200000000001 31.36 l0.08 -0.04 l-0.04 -0.08 l-0.08 0.08 c0 0.04 0 0.04 0.04 0.04 z M93.632 32.12 l-0.04 -0.04 l0 -0.08 l0.04 0.04 l0 0.08 z M97.79200000000002 32.12 c0 0 0.08 -0.2 0.08 -0.28 l-0.04 -0.04 s-0.04 0 -0.04 0.04 c-0.04 0 -0.04 0.04 -0.04 0.08 s0 0.12 0.04 0.2 z M93.35200000000002 33.24 l-0.08 -0.04 l0.08 -0.2 l0.04 0.08 c0 0.04 0 0.12 -0.04 0.16 z M99.99200000000002 32.32 l0.04 -0.08 l0 -0.04 c0 -0.04 0 -0.04 -0.04 -0.04 l-0.04 0.08 z M92.99200000000002 34.519999999999996 l0 -0.08 c0 -0.04 -0.04 -0.04 -0.04 -0.04 l0 0.08 z M99.83200000000001 33.68 l0.04 -0.08 l0 -0.04 c-0.04 0 -0.08 0.04 -0.08 0.08 z M100.15200000000002 33.92 c0.04 0 0.04 -0.04 0.04 -0.08 s-0.04 -0.04 -0.04 -0.04 l-0.04 0.08 s0 0.04 0.04 0.04 z"></path></g></svg>